<svg id="sujitsir_catering_logo_svg" xmlns="http://www.w3.org/2000/svg" xmlns:xlink="http://www.w3.org/1999/xlink" viewBox="0 0 210 297" shape-rendering="geometricPrecision" text-rendering="geometricPrecision"><style><![CDATA[#sujitsir_catering_logo_svg-u-spoon_to {animation: sujitsir_catering_logo_svg-u-spoon_to__to 5600ms linear 1 normal forwards}@keyframes sujitsir_catering_logo_svg-u-spoon_to__to { 0% {transform: translate(398.118989px,-505.804606px)} 37.5% {transform: translate(398.118989px,-505.804606px);animation-timing-function: cubic-bezier(0.42,0,1,1)} 62.5% {transform: translate(213.281352px,513.477113px)} 100% {transform: translate(213.281352px,513.477113px)}} #sujitsir_catering_logo_svg-u-spoon_tr {animation: sujitsir_catering_logo_svg-u-spoon_tr__tr 5600ms linear 1 normal forwards}@keyframes sujitsir_catering_logo_svg-u-spoon_tr__tr { 0% {transform: rotate(122.041821deg)} 41.071429% {transform: rotate(122.041821deg);animation-timing-function: cubic-bezier(0.42,0,0.58,1)} 67.857143% {transform: rotate(0deg)} 100% {transform: rotate(0deg)}} #sujitsir_catering_logo_svg-u-fork_to {animation: sujitsir_catering_logo_svg-u-fork_to__to 5600ms linear 1 normal forwards}@keyframes sujitsir_catering_logo_svg-u-fork_to__to { 0% {transform: translate(837.090652px,91.289429px)} 26.785714% {transform: translate(837.090652px,91.289429px)} 50% {transform: translate(300.387208px,578.386464px)} 100% {transform: translate(300.387208px,578.386464px)}} #sujitsir_catering_logo_svg-u-fork_tr {animation: sujitsir_catering_logo_svg-u-fork_tr__tr 5600ms linear 1 normal forwards}@keyframes sujitsir_catering_logo_svg-u-fork_tr__tr { 0% {transform: rotate(7045.165447deg)} 25% {transform: rotate(7045.165447deg)} 58.928571% {transform: rotate(7200deg)} 100% {transform: rotate(7200deg)}} #sujitsir_catering_logo_svg-u-container_to {animation: sujitsir_catering_logo_svg-u-container_to__to 5600ms linear 1 normal forwards}@keyframes sujitsir_catering_logo_svg-u-container_to__to { 0% {transform: translate(424.869358px,-926.894px);animation-timing-function: cubic-bezier(0.42,0,1,1)} 23.214286% {transform: translate(-523.177px,-926.894px)} 100% {transform: translate(-523.177px,-926.894px)}} #sujitsir_catering_logo_svg-u-dl_ts {animation: sujitsir_catering_logo_svg-u-dl_ts__ts 5600ms linear 1 normal forwards}@keyframes sujitsir_catering_logo_svg-u-dl_ts__ts { 0% {transform: translate(-14.400104px,644.828628px) scale(0,0)} 7.142857% {transform: translate(-14.400104px,644.828628px) scale(0,0)} 28.571429% {transform: translate(-14.400104px,644.828628px) scale(1,1)} 100% {transform: translate(-14.400104px,644.828628px) scale(1,1)}} #sujitsir_catering_logo_svg-u-g11006_to {animation: sujitsir_catering_logo_svg-u-g11006_to__to 5600ms linear 1 normal forwards}@keyframes sujitsir_catering_logo_svg-u-g11006_to__to { 0% {transform: translate(-1921.607163px,-1518.302994px)} 7.142857% {transform: translate(-1921.607163px,-1518.302994px)} 28.571429% {transform: translate(-1465.52px,-764.983px)} 100% {transform: translate(-1465.52px,-764.983px)}} #sujitsir_catering_logo_svg-u-caterers_to {animation: sujitsir_catering_logo_svg-u-caterers_to__to 5600ms linear 1 normal forwards}@keyframes sujitsir_catering_logo_svg-u-caterers_to__to { 0% {transform: translate(-0.740937px,1372.638595px)} 66.071429% {transform: translate(-0.740937px,1372.638595px);animation-timing-function: cubic-bezier(0.47,0,0.745,0.715)} 78.571429% {transform: translate(-0.740936px,851.151611px)} 100% {transform: translate(-0.740936px,851.151611px)}}]]></style><defs><linearGradient id="sujitsir_catering_logo_svg-u-path6490-fill" x1="3190.6211" y1="4503.7407" x2="4031.4182" y2="4316.6445" spreadMethod="pad" gradientUnits="userSpaceOnUse" gradientTransform="translate(0 0)"><stop id="sujitsir_catering_logo_svg-u-path6490-fill-0" offset="0%" stop-color="#999"/><stop id="sujitsir_catering_logo_svg-u-path6490-fill-1" offset="62.34749%" stop-color="#f3f3f3"/><stop id="sujitsir_catering_logo_svg-u-path6490-fill-2" offset="100%" stop-color="rgba(158,148,148,0.980392)"/></linearGradient><linearGradient id="sujitsir_catering_logo_svg-u-path7339-fill" x1="3813.4236" y1="3289.2134" x2="5189.7563" y2="2433.1064" spreadMethod="pad" gradientUnits="userSpaceOnUse" gradientTransform="translate(0 0)"><stop id="sujitsir_catering_logo_svg-u-path7339-fill-0" offset="0%" stop-color="#6e6e6e"/><stop id="sujitsir_catering_logo_svg-u-path7339-fill-1" offset="19.183503%" stop-color="rgba(0,0,0,0.486275)"/><stop id="sujitsir_catering_logo_svg-u-path7339-fill-2" offset="59.482074%" stop-color="rgba(182,182,182,0.4)"/><stop id="sujitsir_catering_logo_svg-u-path7339-fill-3" offset="100%" stop-color="#a6a6a6"/></linearGradient><linearGradient id="sujitsir_catering_logo_svg-u-path3382-fill" x1="668.46973" y1="5827.1246" x2="3259.9983" y2="5827.1246" spreadMethod="pad" gradientUnits="userSpaceOnUse" gradientTransform="translate(0 0)"><stop id="sujitsir_catering_logo_svg-u-path3382-fill-0" offset="0%" stop-color="#787878"/><stop id="sujitsir_catering_logo_svg-u-path3382-fill-1" offset="71.99738%" stop-color="#fff"/><stop id="sujitsir_catering_logo_svg-u-path3382-fill-2" offset="100%" stop-color="#898989"/></linearGradient><linearGradient id="sujitsir_catering_logo_svg-u-path10231-fill" x1="851.36133" y1="2824.4491" x2="2620.584" y2="2824.4491" spreadMethod="pad" gradientUnits="userSpaceOnUse" gradientTransform="translate(0 0)"><stop id="sujitsir_catering_logo_svg-u-path10231-fill-0" offset="0%" stop-color="#ff730f"/><stop id="sujitsir_catering_logo_svg-u-path10231-fill-1" offset="100%" stop-color="#fdf000"/></linearGradient><linearGradient id="sujitsir_catering_logo_svg-u-path9391-fill" x1="4314.3159" y1="4458.7861" x2="5529.1934" y2="4050.5764" spreadMethod="pad" gradientUnits="userSpaceOnUse" gradientTransform="translate(0 0)"><stop id="sujitsir_catering_logo_svg-u-path9391-fill-0" offset="0%" stop-color="#fff"/><stop id="sujitsir_catering_logo_svg-u-path9391-fill-1" offset="100%" stop-color="#d0f7f7"/></linearGradient><linearGradient id="sujitsir_catering_logo_svg-u-path64902-fill" x1="3190.6211" y1="4503.7407" x2="4031.4182" y2="4316.6445" spreadMethod="pad" gradientUnits="userSpaceOnUse" gradientTransform="translate(0 0)"><stop id="sujitsir_catering_logo_svg-u-path64902-fill-0" offset="0%" stop-color="#999"/><stop id="sujitsir_catering_logo_svg-u-path64902-fill-1" offset="62.34749%" stop-color="#f3f3f3"/><stop id="sujitsir_catering_logo_svg-u-path64902-fill-2" offset="100%" stop-color="rgba(158,148,148,0.980392)"/></linearGradient><linearGradient id="sujitsir_catering_logo_svg-u-path73392-fill" x1="3813.4236" y1="3289.2134" x2="5189.7563" y2="2433.1064" spreadMethod="pad" gradientUnits="userSpaceOnUse" gradientTransform="translate(0 0)"><stop id="sujitsir_catering_logo_svg-u-path73392-fill-0" offset="0%" stop-color="#6e6e6e"/><stop id="sujitsir_catering_logo_svg-u-path73392-fill-1" offset="19.183503%" stop-color="rgba(0,0,0,0.486275)"/><stop id="sujitsir_catering_logo_svg-u-path73392-fill-2" offset="59.482074%" stop-color="rgba(182,182,182,0.4)"/><stop id="sujitsir_catering_logo_svg-u-path73392-fill-3" offset="100%" stop-color="#a6a6a6"/></linearGradient><linearGradient id="sujitsir_catering_logo_svg-u-path33822-fill" x1="668.46973" y1="5827.1246" x2="3259.9983" y2="5827.1246" spreadMethod="pad" gradientUnits="userSpaceOnUse" gradientTransform="translate(0 0)"><stop id="sujitsir_catering_logo_svg-u-path33822-fill-0" offset="0%" stop-color="#787878"/><stop id="sujitsir_catering_logo_svg-u-path33822-fill-1" offset="71.99738%" stop-color="#fff"/><stop id="sujitsir_catering_logo_svg-u-path33822-fill-2" offset="100%" stop-color="#898989"/></linearGradient><linearGradient id="sujitsir_catering_logo_svg-u-path102312-fill" x1="851.36133" y1="2824.4491" x2="2620.584" y2="2824.4491" spreadMethod="pad" gradientUnits="userSpaceOnUse" gradientTransform="translate(0 0)"><stop id="sujitsir_catering_logo_svg-u-path102312-fill-0" offset="0%" stop-color="#ff730f"/><stop id="sujitsir_catering_logo_svg-u-path102312-fill-1" offset="100%" stop-color="#fdf000"/></linearGradient><linearGradient id="sujitsir_catering_logo_svg-u-path93912-fill" x1="4314.3159" y1="4458.7861" x2="5529.1934" y2="4050.5764" spreadMethod="pad" gradientUnits="userSpaceOnUse" gradientTransform="translate(0 0)"><stop id="sujitsir_catering_logo_svg-u-path93912-fill-0" offset="0%" stop-color="#fff"/><stop id="sujitsir_catering_logo_svg-u-path93912-fill-1" offset="100%" stop-color="#d0f7f7"/></linearGradient></defs><g id="sujitsir_catering_logo_svg-u-layer1" transform="matrix(.201631 0 0 0.201629 99.407275 68.480129)"><g id="sujitsir_catering_logo_svg-u-spoon_to" transform="translate(398.118989,-505.804606)"><g id="sujitsir_catering_logo_svg-u-spoon_tr" transform="rotate(122.041821)"><g id="sujitsir_catering_logo_svg-u-spoon" transform="translate(-950.916352,-1170.610113)"><path id="sujitsir_catering_logo_svg-u-path6490" d="M3810.2246,3796.3457c-4.615.061-9.2928.3954-14.0254,1.0195-88.7377,9.2871-159.7934,75.0897-214.1445,141.1309-61.0797,75.1166-94.8534,175.8527-71.5215,272.1094c6.3717,47.7433,51.7487,95.2524,21.7344,143.1953-96.5219,198.7634-194.7113,396.8058-293.2969,594.5722-31.1424,38.9235-8.7923,94.308,40.6309,102.1758c55.9125,13.2197,81.8818-47.3688,100.0039-88.1953c81.0619-175.8678,170.5728-347.7637,255.1699-521.9629c16.3382-43.5167,54.2588-75.1172,99.1406-85.5c56.6525-10.2569,106.5819-42.7291,141.5176-88.3476c74.318-95.8897,108.1705-227.9239,75.498-346.1895-16.3126-64.4325-71.4822-124.9262-140.707-124.0078Z" transform="matrix(.264583 0 0 0.264583 0 0)" fill="url(#sujitsir_catering_logo_svg-u-path6490-fill)" stroke-width="1.33333"/><path id="sujitsir_catering_logo_svg-u-path1156" d="M867.72776,1336.291c-13.07655-2.0817-18.98963-16.7357-10.74986-27.0342c26.0841-52.3257,52.06316-104.7243,77.60125-157.3138c7.94129-12.6849-4.06463-25.2547-5.75047-37.8868-6.17323-25.4679,2.76275-52.1211,18.92342-71.9957c14.38039-17.4734,33.18029-34.8839,56.6588-37.3411c20.0345-2.6422,36.336,14.3564,40.9398,32.5407c8.6446,31.2911-.3121,66.2255-19.9754,91.5963-9.2434,12.0699-22.454,20.6611-37.44331,23.3749-11.87497,2.7471-21.90796,11.1082-26.23078,22.622-22.38297,46.0902-46.06635,91.571-67.51399,138.1027-4.79481,10.802-11.66594,26.8327-26.45946,23.335Zm8.22449-5.7802c12.5922-9.4832,14.89589-26.6311,22.56482-39.6641c20.67941-41.8322,41.0801-83.8166,62.12133-125.4628c6.48835-11.2872,18.66985-16.925,30.91436-19.5135c24.94824-6.5255,40.13394-31.0849,47.30444-54.3622c7.3022-24.2529,8.0034-54.9461-11.2103-74.0165-13.0656-12.7146-33.63613-7.8018-47.21412,1.4446-25.16274,16.874-46.70266,43.8777-48.30446,75.1024-1.17188,15.1563,4.99954,29.1329,9.90815,43.0575c2.60225,13.9577-7.94397,25.6779-12.70985,38.0556-22.90234,46.2647-45.5142,92.7128-68.73546,138.7893-6.6256,10.4941,5.10531,20.782,15.36109,16.5697Z" stroke-width="0.352778"/></g></g></g><g id="sujitsir_catering_logo_svg-u-fork_to" transform="translate(837.090652,91.289429)"><g id="sujitsir_catering_logo_svg-u-fork_tr" transform="rotate(7045.165447)"><g id="sujitsir_catering_logo_svg-u-fork" transform="translate(-1224.788208,-781.768464)"><path id="sujitsir_catering_logo_svg-u-path7339" d="M4989.166,2435.707c-38.6743-.8061-68.8999,45.1199-104.1289,61.293-41.8371,38.2378-90.3206,67.2647-135.1269,101.6016-47.1251,43.3747-93.1643,89.6894-129.2969,142.7617-36.5121,48.2679-5.9657,111.6999-23.9317,162.7383-174.4206,150.7344-350.8621,299.5624-527.416,447.5976-46.1231,37.3829-18.7371,111.533,36.1348,121.1699c38.451,6.8613,63.5597-29.4168,90.1094-50.5058c127.9952-113.066,260.3567-220.8262,389.5039-332.125c48.7253-31.0274,89.2454-109.0331,156.1914-77.3399c64.0267,25.3355,131.3401-7.1703,183.9023-43.207c90.8527-68.0908,178.8825-141.8994,254.3574-227.1523c53.9271-19.647,38.4309-117.0285-22.7343-80.5235-71.3636,50.3723-134.5203,111.2279-201.8926,166.4239-17.9615,14.1381-82.2816,81.4419-67.6699,29.1171c72.2698-62.2248,146.1537-123.0308,218.6855-185.1601c54.8897-14.6181,55.6609-116.7685-11.0293-85.2871-65.8499,51.591-127.8595,108.2156-192.7324,161.1777-17.2173,13.026-98.4409,93.1823-74.3555,35.0801c69.224-58.7066,138.9872-117.1303,208.4492-175.6758c46.6572-16.8356,79.869-100.6829,5.8243-97.916-66.5809,51.5815-129.3026,108.7235-195.0996,161.582-20.7296,14.4989-87.9685,94.0321-86.9688,43.7617c54.6206-51.0973,114.9069-96.1791,170.8613-146.0156c31.3168-37.021,118.0572-63.9125,86.6524-124.4316-9.9902-6.1033-19.3642-8.7788-28.2891-8.9649Z" transform="matrix(.264583 0 0 0.264583 0 0)" fill="url(#sujitsir_catering_logo_svg-u-path7339-fill)" stroke-width="1.33333"/><path id="sujitsir_catering_logo_svg-u-path1038" d="M1086.2206,918.86311c-14.5182-2.54978-21.764-22.16856-9.5606-32.05944c46.7132-39.16764,93.3964-78.54495,139.5452-118.42676c4.7535-13.50391-3.3285-30.287,6.332-43.0579c9.5601-14.04205,21.7414-26.29613,34.2099-37.77236c11.855-9.08496,24.6831-16.765,35.7525-26.88208c11.472-5.26663,20.9381-22.45747,35.0354-13.84514c8.3092,16.01236-14.6408,23.12721-22.9267,32.92236-14.8046,13.18591-30.7555,25.11423-45.2072,38.63373-.2645,13.30071,17.5258-7.74264,23.0105-11.57879c17.4088-13.98549,34.0041-29.10426,51.6203-42.75186c19.591-.73207,10.8036,21.45231-1.5411,25.90672-18.3785,15.49015-36.8368,30.9484-55.1523,46.48119-6.3726,15.37288,15.1177-5.83514,19.6731-9.28159c17.1643-14.01288,33.571-28.99508,50.9938-42.64521c17.6451-8.32944,17.4412,18.6978,2.9183,22.56551-19.1907,16.43837-38.7393,32.52694-57.8607,48.99059-3.866,13.84426,13.152-3.96318,17.9043-7.70391c17.8256-14.60392,34.5362-30.70542,53.4178-44.03308c16.1833-9.65862,20.2832,16.10665,6.015,21.30491-19.9694,22.5565-43.2607,42.08507-67.2988,60.10075-13.9071,9.5347-31.7168,18.1354-48.6572,11.43207-17.7128-8.38551-28.434,12.25345-41.3259,20.46278-34.1702,29.44782-69.1908,57.95932-103.0562,87.87469-7.0246,5.5798-13.6679,15.1782-23.8414,13.36282Zm5.7209-5.6511c14.8336-10.60874,27.346-24.18949,41.7647-35.4063c34.281-28.65919,67.9769-58.14783,102.5231-86.51371c15.3411-5.02083,31.3945,9.11166,46.6202-.45625c24.5437-11.02091,43.2986-31.11663,63.6672-48.13429c9.4399-10.01627,21.0754-19.38213,28.0866-30.86359-7.7255-12.03438-21.7452,11.80211-30.3845,15.24428-15.7351,13.68056-31.6456,27.22634-47.7426,40.45603-20.5614-.71008-3.7319-23.21539,7.0332-27.4337c17.217-14.85958,35.03-29.11322,51.9272-44.26907c4.7528-17.59032-18.1281,3.4459-22.646,8.28486-17.4918,14.58339-34.9373,29.22731-52.307,43.95145-19.6587,1.45301-7.0153-21.20277,4.1409-24.82316c18.0166-15.37018,36.2937-30.53868,54.2833-45.80571c6.8662-13.83306-11.9097-4.6363-15.2677,1.90575-18.1337,15.0108-36.1032,30.52352-54.2671,45.61618-11.6409,12.59553-23.9326-7.78648-9.544-14.74066c20.8526-16.8626,40.9151-34.76838,61.8332-51.50828c8.2923-16.76899-14.5614-4.48872-19.7003,2.13158-12.6875,8.55158-23.9296,19.16014-37.0593,27.16336-14.0065,10.73703-25.6846,24.33155-36.6004,38.0773-10.41,12.70856-2.7306,29.25798-6.2582,43.59128-22.7129,21.61065-47.4872,41.14564-71.2282,61.68285-23.4008,19.25344-45.7696,39.82089-69.714,58.3498-12.0855,8.24017-2.1018,26.71123,10.8397,23.5Z" stroke-width="0.352778"/></g></g></g><g id="sujitsir_catering_logo_svg-u-container_to" transform="translate(424.869358,-926.894)"><g id="sujitsir_catering_logo_svg-u-container" transform="translate(0,0)"><path id="sujitsir_catering_logo_svg-u-path3382" d="M1957.6816,5129.1875c-54.1519-1.229-106.8104,24.5202-123.6992,86.9375-6.34,29.7449,3.2273,74.8935,26.1856,123.5742c8.3562,17.7173,8.3528,17.7598-1.3418,17.7598-2.9822,0-6.3941,1.0628-8.3477,2.5996-3.3714,2.6521-30.3283,8.0664-40.1582,8.0664-2.6436,0-6.7773.8871-9.1855,1.9707s-12.1796,3.8257-21.7129,6.0938c-34.3884,8.1811-57.0933,15.6195-95.3321,31.2304-45.0565,18.3942-54.7826,22.7226-88.6601,39.4629-95.0887,46.9882-194.3593,104.1225-234.6738,135.0625-241.5063,188.3845-380.71588,468.6606-453.24418,776.7363-3.35089,17.1731-6.30852,31.4425-6.57422,31.7071-.43007.4301-172.2784,7.535-211.74219,8.7539-17.22005.5321-19.22059,1.3534-20.54883,8.4336-.69721,3.7164.49408,7.4097,6.72852,20.8652c9.16199,20.7383,33.0509,106.7399,87.94336,95.6856l13.38476-.045c7.36222-.024,556.08678-11.946,1219.38668-26.4941c725.5459-15.9133,1206.3115-25.9648,1206.7832-25.2285.4314.6727,5.1831,1.0473,10.5586.8281l9.7735-.3965l3.7461-13.332c2.0602-7.3334,5.6169-20.2347,7.9043-28.668s4.9379-16.2322,5.8906-17.332c.9525-1.1002,3.9215-9.8005,6.5977-19.334c7.9525-28.3294,9.1556-31.9488,10.9921-33.0664c2.5169-1.5311,2.1059-7.73-.7597-11.457-1.3491-1.7549-5.3842-4.3047-8.9688-5.6661-6.0684-2.3058-11.6822-2.4754-81.4922-2.4765h-74.9746l-.6699-3c-.3677-1.6498-1.6153-8.4002-2.7734-15-2.1986-12.5288-7.7166-39.6823-10.1602-50-6.0651-25.6093-26.3467-94.4624-38.6875-131.334-80.538-234.291-226.7428-494.0067-467.0937-624.9375-27.2961-16.1847-80.0016-43.9392-104-54.7656-5.8667-2.6468-22.6673-10.313-37.334-17.0371-29.8583-13.6891-50.8162-22.2805-77.7461-31.8692-10.0392-3.5743-28.7178-10.5031-41.5078-15.3965-31.1567-11.9195-57.4601-19.2463-92.8457-25.8593-40.809-7.6271-130.3602-20.1291-144.2188-20.1328h-4.3164l6.5332-13c18.0428-35.9025,25.0429-62.9694,23.7949-92-1.7161-70.18-73.8097-116.3573-143.4336-117.9375Z" transform="matrix(.264583 0 0 0.264583 0 0)" fill="url(#sujitsir_catering_logo_svg-u-path3382-fill)" stroke-width="1.33333"/><path id="sujitsir_catering_logo_svg-u-path1510" d="M178.69282,1700.8585c-1.64953-3.5601-1.96468-4.5375-1.78021-5.5208.35143-1.8733.8808-2.0905,5.43694-2.2313c10.44146-.3225,55.90948-2.2022,56.02327-2.316.0703-.07.85326-3.8454,1.73985-8.3891c19.18978-81.5117,56.02216-155.6684,119.92068-205.5118c10.66656-8.1862,36.93201-23.3027,62.09088-35.735c8.96343-4.4292,11.53651-5.5746,23.45773-10.4414c10.11734-4.1304,16.12501-6.0985,25.22361-8.2631c2.52236-.6001,5.10745-1.3256,5.7446-1.6123s1.7308-.5212,2.43025-.5212c2.60082,0,9.73307-1.4328,10.6251-2.1345.51689-.4066,1.42004-.6878,2.20906-.6878c2.56505,0,2.56586-.011.35493-4.6987-6.07438-12.8801-8.60566-24.8257-6.9282-32.6957c10.21371-37.7476,69.87154-24.8086,70.67874,8.202.3302,7.681-1.52213,14.8426-6.29596,24.3418l-1.72857,3.4395l1.14254.0004c3.66674.001,27.36017,3.3091,38.15754,5.3271c9.36244,1.7497,16.322,3.6881,24.56553,6.8418c3.38403,1.2947,8.32602,3.1278,10.98222,4.0735c7.1252,2.537,12.67055,4.8101,20.57054,8.432c3.88056,1.7791,8.32556,3.8077,9.87778,4.508c6.34958,2.8645,20.2946,10.2079,27.51667,14.4901c63.59286,34.6421,102.27605,103.3584,123.58507,165.3479c3.26517,9.7556,8.63162,27.9728,10.23634,34.7486.64653,2.7299,2.10629,9.9143,2.68799,13.2292.30642,1.7462.63676,3.5322.73406,3.9687l.17692.7938l19.83704.0003c18.47056.0003,19.95579.045,21.56139.6551.94841.3602,2.01644,1.0348,2.37338,1.4991.75819.9861.86695,2.6263.20102,3.0314-.48592.2957-.8043,1.2533-2.90841,8.7488-.70806,2.5224-1.49363,4.8242-1.74565,5.1153s-.95342,2.3548-1.55864,4.5861-1.54637,5.6444-2.09148,7.5847l-.99109,3.5278-2.58594.1048c-1.42229.058-2.67931-.041-2.79343-.219-.12481-.1948-127.32762,2.4643-319.29495,6.6747-175.49812,3.8492-320.68125,7.0037-322.62917,7.01l-3.54169.012c-14.52363,2.9248-20.84417-19.8298-23.26828-25.3168Zm342.13667,12.9691c177.28063-3.8806,323.56473-7.0556,325.07582-7.0556h2.7474l1.19104-4.3215c2.5689-9.3207,3.18463-11.3281,3.54256-11.5493.34848-.2154,2.10947-6.0089,2.11903-6.9715.006-.5607-29.61435-.6108-49.73729-.084-7.47007.1954-34.29881.8316-59.61944,1.4138-25.32062.582-89.77312,2.0872-143.22777,3.3447-93.16084,2.1916-154.18455,3.6032-220.83888,5.1083-16.97743.3834-34.28118.7828-38.45277.8876s-14.72847.3455-23.45972.5349-18.89125.4228-22.57778.5187-10.35403.255-14.81667.3537c-4.46263.099-15.24436.3615-23.95939.5839s-17.86815.3144-20.34029.2045c-3.98155-.1771-54.15445,1.5876-54.46656,1.9157-.0644.068.17849.7581.5398,1.5342s1.43241,3.0823,2.38023,5.1249c3.78231,4.2305,5.39201,13.7168,11.13169,15.5126.24231,0,145.48835-3.175,322.76899-7.0555Zm-157.09197-24.6934c133.11592-3.2189,145.08564-3.5081,319.88554-7.7268c70.67698-1.7058,128.59331-3.1911,128.70296-3.3007.34399-.344-3.19652-17.9921-4.25906-21.2298-.25883-.7887-1.3693-4.6884-2.46771-8.666-1.83684-6.6516-8.26661-26.6975-10.29705-32.1027-27.79224-66.8536-55.41907-116.5168-120.59108-153.1825-1.94028-1.0761-5.51216-3.0664-7.9375-4.4228-5.03439-2.8156-13.73689-7.2082-17.63889-8.9033-1.45521-.6321-5.57086-2.4912-9.14591-4.1312-7.39267-3.3914-11.22546-4.9573-19.2527-7.8658-3.10445-1.1249-7.23195-2.6784-9.17222-3.4524-4.07085-1.6238-10.81053-3.9076-14.64028-4.961-5.88095-1.6176-19.65445-4.037-33.3375-5.856-12.42822-1.6522-16.58228-2.0442-18.87361-1.7806-1.17193.1347-3.30084,0-5.37605-.3301-3.74964-.6038-8.73506-.7397-8.73506-.2382-19.27339,1.3634-32.43978,1.9848-50.8,5.1977-4.79823.8336-14.5569,3.3472-20.10833,5.1792-4.49852,1.4846-13.402,5.0174-23.28333,9.2385-11.26336,4.8116-44.43935,22.432-56.97361,30.2599-11.08018,6.9198-15.99014,10.4114-21.87222,15.554-47.44677,45.1436-83.33353,93.8814-102.85395,159.1515-1.00182,3.3788-4.15016,15.3929-5.5006,20.9903-1.59255,6.6009-5.0635,23.5711-5.0635,24.7564c0,.5221.28302.6434,1.4993.6427.82462,0,53.96618-1.2696,118.09236-2.8203ZM506.7889,1415.7603c6.46546-.5349,22.97867-.7862,29.10417-.4429c6.45325.3616,5.67386.8193,8.60799-5.0551c3.43873-6.8847,4.89461-11.0657,5.68949-16.3389.64886-4.3046.64572-5.1162-.0328-8.4586-7.18957-28.5811-55.43895-31.3075-59.79467-2.142-.33436,2.6351-.29001,3.612.32837,7.232c1.39008,8.1379,3.66906,14.4415,8.82756,24.4164.73452,1.4203.87633,1.5193,1.91498,1.3366.61694-.1085,3.02669-.3549,5.35503-.5475Z" stroke-width="0.352778"/></g></g><g id="sujitsir_catering_logo_svg-u-dl_ts" transform="translate(-14.400104,644.828628) scale(0,0)"><g id="sujitsir_catering_logo_svg-u-dl" transform="translate(-459.930896,-749.680628)"><path id="sujitsir_catering_logo_svg-u-path10231" d="M2072.9043,2193.498c-53.0685,150.1966-95.2598,304.8021-144.2656,456.6485-16.257,24.4482-32.0169,166.3203-48.9473,92.666-39.729-100.114-86.0214-204.8498-169.2598-275.5625-133.8522-116.9324-346.2937-187.1-528.5546-142.0488-64.0206,25.2846-133.3072,50.0676-193.23052,87.6074-50.26839,35.7081-123.6615,70.4717-137.28515,134.2051c138.50857,251.8326,276.42997,504.1596,414.74027,756.1679c40.1299,54.7616,52.3529,154.5841,137.8554,152.1758c153.0331-2.9631,309.3607-68.9921,415.334-180.1465c177.6335,41.1935,355.2808,82.3291,532.9258,123.4727c60.4139-2.4299,157.7485,68.1037,198.1777,22.5215c22.3557-100.1613,53.9925-199.5659,70.1895-300.3379-131.3902-38.7693-267.3554-67.6421-400.4375-102.8574c59.7891-224.1532,121.6827-447.7405,182.6074-671.586c52.1141-89.2187-76.9443-76.9377-129.2637-102.039-66.6436-14.9859-134.5262-43.6066-200.5859-50.8868Zm-656.4414,415.877c33.4728.6339,66.5224,8.6958,97.1601,26.7773c98.0998,66.6668,162.0549,204.6522,105.1465,317.0274-34.976,70.3752-108.7879,101.3192-179.164,123.7265v0l-6.666,2.5469c-37.4569-68.9261-71.8863-139.4678-108.2051-209.0274-23.4936-65.1258-94.3952-147.7158-90.7852-201.4668c53.1644-34.9268,118.611-60.7922,182.5137-59.582Z" transform="matrix(.264583 0 0 0.264583-.000001 0)" fill="url(#sujitsir_catering_logo_svg-u-path10231-fill)" stroke-width="1.33333"/><path id="sujitsir_catering_logo_svg-u-path10122" d="M372.08508,916.60883c-22.62255.6372-25.85649-25.7745-36.4742-40.2635-36.59459-66.6772-73.08638-133.43883-109.73344-200.06943c3.60459-16.8628,23.02297-26.0602,36.32315-35.50797c15.8547-9.9324,34.18711-16.4898,51.12587-23.1797c48.22322-11.9198,104.43141,6.6453,139.84649,37.58367c22.02347,18.7094,34.27158,46.421,44.7832,72.9095c4.47951,19.4876,8.64942-18.0495,12.95075-24.5181c12.96612-40.176,24.12941-81.08217,38.17045-120.82167c17.4783,1.9262,35.43859,9.499,53.07139,13.464c13.84283,6.6414,47.98994,3.3922,34.20143,26.998-16.11966,59.22577-32.49587,118.38277-48.31508,177.69c35.2113,9.3174,71.18562,16.9568,105.94926,27.2145-4.28545,26.6626-12.65592,52.9636-18.57086,79.4646-10.6969,12.0603-36.45041-6.6021-52.43493-5.9592-47.00191-10.8859-94.00436-21.7695-141.00321-32.6686-28.03878,29.4096-69.40026,46.8799-109.89027,47.6639Zm11.83196-5.974c34.87203-4.7178,70.06178-19.438,93.78723-46.0283-1.79919-10.0658,7.78102-29.3587,6.76508-8.7288.23181,17.4264,32.34936,11.0883,45.83427,18.5954c46.45385,10.5982,92.77088,21.8272,139.3174,31.9987c6.69306-24.7004,12.80163-49.6602,18.33837-74.6478-35.12394-9.4503-70.85209-17.2193-105.74734-27.1441c3.7589-23.262,12.23991-46.14973,17.77416-69.27503c11.2952-41.5468,22.80092-83.0484,33.90866-124.63867-27.04614-7.4586-54.06354-15.03-81.13674-22.3847-16.95855,51.7455-32.37611,104.06987-48.78242,156.02587-.83109,9.6912,11.17509,36.82753-.8402,36.84493-1.42301-32.58593-13.30453-64.11993-29.8422-91.91693-17.25689-25.7621-40.70728-47.60277-69.98725-58.87547-26.90084-10.5247-57.24038-15.6124-85.25682-6.2795-26.84437,4.8578-51.65903,18.9575-73.13724,35.52057-25.11295,11.4665-3.01496,30.912,3.78551,46.3626c36.00173,65.1276,71.11108,130.81443,107.68191,195.58453c4.84107,10.7561,17.16139,9.9689,27.53762,8.9867Zm-7.902-90.5665c-21.14234-36.6695-38.14139-75.93513-58.95798-112.81893c14.1804-11.9707,34.06317-20.6324,53.25856-22.0289c27.15015-1.8749,50.88622,17.0649,61.95337,40.7715c13.13593,23.8563,11.31792,57.56803-10.94201,75.55433-11.47152,11.3773-28.34113,16.4541-43.4647,19.8024l-1.84735-1.2804Zm4.96824-5.5287c18.62036-5.9286,38.1495-14.1157,47.40358-32.7358c15.05701-29.73263-1.86438-66.24113-27.81994-83.88003-23.58176-13.9173-52.5626-5.4021-73.99714,8.6795-.95516,14.2216,17.80408,36.0733,24.02008,53.3045c9.60936,18.4043,18.71908,37.06863,28.62953,55.30533l1.76389-.6736Z" stroke-width="0.352778"/></g></g><g id="sujitsir_catering_logo_svg-u-g11006_to" transform="translate(-1921.607163,-1518.302994)"><g id="sujitsir_catering_logo_svg-u-g11006" transform="rotate(3.156359) skewX(0.000057) skewY(0) translate(0,0)"><g id="sujitsir_catering_logo_svg-u-g1338" transform="matrix(1.05106-.036446 0.038333 0.999336-102.589 47.1514)"><path id="sujitsir_catering_logo_svg-u-path9391" d="M5271.8164,3781.207c-15.6132-.2725-31.0408.5712-45.7539,2.2793-123.4741,8.4114-222.8785,98.4562-284.8125,199.8242-33.078-40.3328-95.9224-24.7511-132.834,1.6368-97.4252,65.1329-128.2383,188.8271-132.8281,299.3847-13.8928,34.6061-73.2863,34.3936-99.1738,63.5391-100.8715,70.2739-185.962,168.1327-230.7539,283.4453-26.3022,61.6388-19.4911,147.3188,46.3906,181.3516c67.5507,33.9696,137.7456-15.4263,195.8672-47.166c37.5352-21.7047,83.4081-45.5693,120.6191-42.1231c62.6049,71.187,122.2576,145.1496,184.0469,217.125l6.5293,3.1465l7.4199-2.0664c37.6233-37.112,63.5122-84.5833,94.2246-127.3789c56.2405-94.6092,136.4213-181.3695,243.6113-216.3672c50.2606-21.7977,116.9777-5.9087,158.5547-42.0039-24.2422-63.0017-57.8368-122.5351-86.7226-183.709-19.3985-42.3594-46.1996-85.5562-56.9766-128.5918c27.8449-56.9046,85.5474-90.7141,121.7715-141.6875c47.6028-65.4138,99.6204-152.5374,61.0703-233.9844-31.461-63.3544-102.5927-85.4735-170.25-86.6543Z" transform="matrix(.264583 0 0 0.264583 0 0)" fill="url(#sujitsir_catering_logo_svg-u-path9391-fill)" stroke-width="1.33333"/><path id="sujitsir_catering_logo_svg-u-path902" d="M1294.4962,1307.1756c-16.3485-19.0436-32.1314-38.6134-48.6957-57.4484-9.8454-.9118-21.9829,5.4026-31.9141,11.1453-15.378,8.3978-33.95,21.4671-51.8228,12.4793-17.4312-9.0045-19.2335-31.6743-12.2744-47.9829c11.8512-30.5098,34.3649-56.4016,61.0538-74.9949c6.8494-7.7114,22.5636-7.6549,26.2394-16.8111c1.2144-29.2517,9.3672-61.9793,35.1443-79.2124c9.7662-6.9818,26.3939-11.1043,35.1458-.4329c16.3867-26.8203,42.6874-50.6449,75.3566-52.8704c20.7618-2.41036,46.9059,1.6936,57.1509,22.3244c10.1997,21.5495-3.5634,44.6011-16.1583,61.9085-9.5843,13.4867-24.8511,22.432-32.2184,37.488c2.8514,11.3865,9.9423,22.8158,15.0748,34.0234c7.6427,16.1856,16.5313,31.9373,22.9454,48.6065-11.0006,9.5502-28.6527,5.3458-41.9508,11.1131-28.3607,9.2598-49.5753,32.2154-64.4556,57.2474-8.126,11.323-14.9758,23.8831-24.9303,33.7023l-1.9633.5465-1.7273-.8321Zm4.8131-7.7354c19.7136-25.1162,33.0066-56.1515,60.4846-74.2931c17.5722-13.5205,39.7153-17.6243,61.2017-19.9595c3.7711-8.2623-10.278-23.078-13.2705-33.7332-7.0657-14.3791-14.1603-28.8221-21.1342-43.1981-21.459,6.6395-42.2207,15.3285-61.3697,27.1853-20.3884,12.3939-40.7382,26.2723-53.4681,47.0345-8.7744,12.9576-17.0825,26.3953-23.1181,40.9887c15.6863,19.9508,32.4111,39.1742,48.8639,58.5216l1.8104-2.5461Zm-117.702-29.0094c20.9426-5.7971,37.5578-21.2733,58.6156-26.9318c6.2257-6.9007,11.9786-18.5719,17.6473-29.0561-9.2241-3.4795-26.2391,5.7152-34.4142,14.3632-11.8787-1.5771,8.0499-17.6384,13.8327-20.7146c8.0859-7.1308,20.8727-5.751,28.8362-6.3987c11.2518-9.5828,12.2923-20.276,11.2849-33.9405c2.0953-13.6739,5.3744-28.8718,15.3613-38.8713c9.3787,7.9-8.6669,24.2549-5.5676,36.3286-.6552,7.9361.1237,13.9466,6.8912,5.324c11.8795-7.7247,23.6199-14.6375,22.3245-30.5651c9.6399-8.7156.2362,20.5227,12.5042,7.5816c13.7498-2.1331,10.9478-13.8077,12.7095-24.0909c3.7341-17.7845,11.645-34.7622,24.9862-47.3285c9.7223,2.5088-10.4598,15.7285-11.2675,23.3663-3.402,10.0687-10.2677,29.1924-3.0801,35.8816c10.7391-5.0119,22.1772-8.3672,33.4538-11.9738c8.8608-20.6088,30.7286-31.4398,41.0706-51.2198c9.4133-14.7943,17.719-35.7222,5.1924-51.2626-17.0092-18.5681-45.8504-17.757-68.0657-10.5322-33.7451,12.2487-55.2777,44.762-66.344,77.4952-4.7503,7.5985-9.7862,31.9853-18.5321,26.8684c10.0999-17.0022,16.0437-35.9143,24.4788-53.7074-3.8758-14.8723-25.074-7.0662-32.8361.8591-22.4763,17.8264-27.6738,48.5061-28.8917,75.538-1.0097,19.2827-4.0032,40.0176-17.3539,54.8943-6.4237-7.7237,12.9138-22.955,10.3393-35.2874c4.8776-13.8637-1.2595-16.0567-11.8838-8.2041-30.615,17.8306-55.6559,45.979-68.797,78.9504-6.473,14.5972-3.4639,34.9221,12.6886,41.6953c4.6071,2.5119,9.8818,1.792,14.8166.9388Z" stroke-width="0.352778"/></g></g></g><g id="sujitsir_catering_logo_svg-u-caterers_to" transform="translate(-0.740937,1372.638595)"><g id="sujitsir_catering_logo_svg-u-caterers" transform="rotate(-3.344534) translate(50.395847,-849.65868)"><path id="sujitsir_catering_logo_svg-u-path8027" d="M-207.4805,868.99205v6.41161q-16.57155,18.4457-30.47981,30.38116-13.80961,12.0341-27.02739,18.4457-13.21778,6.51025-25.5478,6.51025-10.65313,0-18.34706-4.24152-7.59529-4.24153-11.5409-12.42866-3.84696-8.08849-3.84696-19.23483q0-8.77897,2.76192-18.54434q2.86056-9.86402,8.18713-19.82667q5.32657-10.06129,13.0205-20.71443q7.79257-10.65313,18.24842-22.39131q10.85042-12.13274,21.40491-20.91171q10.5545-8.87761,19.13619-13.90826t15.88106-7.49665q7.39801-2.466,12.23138-2.466q4.93201,0,8.38441,2.36736t5.32657,6.90481t1.87416,10.45586q0,11.14633-7.59529,24.85731-7.59529,13.61234-18.93891,26.33692t-21.70083,20.81307q-10.25857,7.98985-14.79602,7.98985-3.05784,0-5.72113-2.36737-2.56464-2.466-2.56464-5.52384q0-5.62249,5.91841-13.61234q6.01705-7.98985,13.0205-14.59874q7.10209-6.70753,8.48305-6.70753.69048,0,.69048.59184q0,.88776-1.08504,3.05784-.9864,2.17009-.9864,2.66329q0,.78912.59184.78912q1.67688,0,9.66673-8.97625t14.59874-19.72803q6.70753-10.85042,6.70753-17.75523q0-2.86056-1.28232-4.34016-1.18368-1.57824-3.64969-1.57824-6.90481,0-21.01034,11.24497-14.0069,11.14634-28.80292,28.507-14.69738,17.26202-24.5614,35.70773t-9.86401,32.4526q0,8.0885,2.36736,13.5137q2.466,5.42521,7.10209,8.38442q4.73473,2.9592,11.34362,2.9592q14.30282,0,32.4526-11.14634t39.94926-32.84716Z" fill="#ff2a2a" stroke="#000" stroke-width="1.6"/><path id="sujitsir_catering_logo_svg-u-path8029" d="M-196.82737,851.73002q14.9933-13.61233,29.09884-20.22122t21.79947-6.60889q2.07144,0,3.84696,1.77552q1.77553,1.67688,2.76193,3.94561q1.08504,2.26872,1.08504,3.35376q0,1.77552-1.38096,2.66328-1.38096.78912-4.83337,1.97281.69048,1.57824,1.77552,4.04424t1.67689,4.04425q.59184,1.4796.59184,2.66328q0,2.36736-4.83337,8.87761-4.73473,6.41161-6.70753,9.46946-1.87416,3.05784-1.87416,7.49665q0,7.29937,6.70753,7.29937q6.90481,0,21.60219-12.92186v6.01705q-24.95596,27.71788-35.70773,27.71788-3.84697,0-5.52385-2.56465-1.57824-2.466-1.57824-7.39801q0-7.79257,5.62249-22.58859-14.40146,15.9797-21.40491,22.78587-7.00345,6.70753-11.5409,6.70753-2.17008,0-5.42521-3.74832t-5.81977-9.66674q-2.466-6.01705-2.466-12.42865q0-4.63609.88776-7.69393.88776-3.15649,3.45241-6.41161t8.18713-8.5817Zm47.24862-10.85041q-25.64643,11.73818-36.59549,19.92531-10.85041,8.18713-10.85041,16.86746q0,3.15648,1.08504,5.22793q1.08504,1.9728,2.9592,1.9728q1.08504,0,3.84697-1.38096q10.35721-6.11569,18.9389-15.88106q8.5817-9.86402,20.61579-26.73148Z" fill="#ff2a2a" stroke="#000" stroke-width="1.6"/><path id="sujitsir_catering_logo_svg-u-path8031" d="M-91.775632,818.19238h4.241525q5.227928-9.37081,9.469454-13.21778q4.241525-3.94561,9.666733-3.94561t5.425207,2.46601q0,1.18368-4.241525,6.41161t-6.411609,8.77897q3.353764.39456,5.918408.69048q2.663284.29592,4.142886.4932-5.622488,10.45585-14.10554,21.40491-2.761924-.19728-4.636086-.29592-1.874163-.19728-3.846966-.29592-1.874162-.19728-4.636086-.39456-5.326567,8.58169-8.976252,15.38786-3.551047,6.70753-5.523847,12.33002-1.87416,5.62248-1.87416,10.65313q0,6.80617,5.4252,6.80617q3.748329,0,9.765377-3.9456q6.115689-4.04425,16.275623-12.33002v6.60889q-26.63284,28.90156-39.35741,28.90156-4.43881,0-7.20073-3.45241-2.66329-3.4524-2.66329-8.87761q0-3.64968,1.4796-8.68033q1.57825-5.03065,5.52385-15.19058-1.38096,1.18368-2.66328,2.36736-1.18368,1.08504-2.26873,2.07144-.9864.88777-2.17008,1.97281-1.18368.9864-2.36736,2.07144v-6.80617q10.35721-8.68033,25.05459-30.4798-1.4796-.0986-2.76192-.0986-1.28232-.0986-3.05785-.0986-5.81976,0-8.68033.78912-1.18368.29592-2.26872.69048-.9864.29592-1.38096.29592t-.39456-.59184q0-3.25513,4.04424-9.76537q3.25513-5.52385,6.11569-8.18714q2.95921-2.66328,7.10209-3.55104q4.241527-.9864,11.836818-.9864Z" fill="#ff2a2a" stroke="#000" stroke-width="1.6"/><path id="sujitsir_catering_logo_svg-u-path8033" d="M-60.112145,872.93765v2.46601q0,5.81977,2.860564,9.07489t7.49665,3.25512q4.833367,0,9.962654-2.26872q5.227928-2.26872,10.357215-6.01705t12.527297-10.06129v6.01705q-11.146335,13.41506-20.911709,20.61579-9.765374,7.10209-19.826667,7.10209-8.778973,0-13.90826-6.80617t-5.129287-18.64299q0-10.35721,4.833367-18.74163q4.833367-8.48305,15.782422-17.85386q7.49665-6.41161,14.89466-9.66673t13.217779-3.25513q4.636086,0,7.29937,2.17008q2.761924,2.07145,2.761924,6.31297q0,6.21433-4.636087,12.42866-4.636086,6.11569-14.204179,12.23138-9.469454,6.01705-23.377713,11.63953Zm.986402-6.4116q8.877612-3.45241,15.190581-8.5817t9.272172-9.76537q3.057845-4.73473,3.057845-6.90481q0-2.26872-2.071443-2.26872-1.775523,0-5.819768,2.26872-3.945606,2.26872-8.088492,5.91841-4.044245,3.64968-7.29937,8.58169t-4.241525,10.75178Z" fill="#ff2a2a" stroke="#000" stroke-width="1.6"/><path id="sujitsir_catering_logo_svg-u-path8035" d="M-17.894152,876.9819v-6.41161q5.326568-6.31297,8.088492-10.75177-3.156485-1.08505-4.636087-2.66329-1.380962-1.57824-1.380962-4.73472q0-3.55105,2.959204-8.97626t7.29937-10.15993t7.891211-6.11569q1.380962-.69048,2.663284-.69048q1.972803,0,1.972803,1.87416q0,1.67688-3.057844,6.80617Q24.225187,832.002,29.551754,832.002q2.071443,0,2.860564.39456q1.676882.88776,2.761924,4.14288t1.085041,6.51025q0,2.07145-1.874162,4.53745-1.775523,2.36736-6.214329,7.00345-5.227927,5.62249-8.778972,12.23138t-3.551045,9.96265q0,4.63609,5.721128,4.63609q6.017048,0,20.911709-12.23138v6.60889q-8.187131,8.58169-13.513699,13.5137t-9.864013,7.89121q-4.537447,2.86056-8.088492,2.86056-4.142885,0-6.904809-3.74832-2.761924-3.84697-2.761924-11.0477q0-4.24152,2.170083-9.66673t6.312969-11.73818q4.241526-6.41161,9.469453-12.72458-2.761924.59184-6.214329,1.28233-3.452405.59184-7.29937,1.28232t-5.918408,1.08504q-6.115688,12.23138-17.755225,22.19403Z" fill="#ff2a2a" stroke="#000" stroke-width="1.6"/><path id="sujitsir_catering_logo_svg-u-path8037" d="M57.861457,872.93765v2.46601q0,5.81977,2.860564,9.07489t7.496651,3.25512q4.833366,0,9.962654-2.26872q5.227927-2.26872,10.357214-6.01705t12.5273-10.06129v6.01705q-11.146338,13.41506-20.911712,20.61579-9.765373,7.10209-19.826667,7.10209-8.778972,0-13.908259-6.80617t-5.129287-18.64299q0-10.35721,4.833366-18.74163q4.833367-8.48305,15.782422-17.85386q7.49665-6.41161,14.894661-9.66673t13.217778-3.25513q4.636086,0,7.29937,2.17008q2.761928,2.07145,2.761928,6.31297q0,6.21433-4.636091,12.42866-4.636086,6.11569-14.204179,12.23138-9.469453,6.01705-23.377713,11.63953Zm.986402-6.4116q8.877612-3.45241,15.190581-8.5817t9.272173-9.76537q3.057844-4.73473,3.057844-6.90481q0-2.26872-2.071443-2.26872-1.775522,0-5.819768,2.26872-3.945605,2.26872-8.088491,5.91841-4.044246,3.64968-7.29937,8.58169t-4.241526,10.75178Z" fill="#ff2a2a" stroke="#000" stroke-width="1.6"/><path id="sujitsir_catering_logo_svg-u-path8039" d="M100.07945,876.9819v-6.41161q5.32657-6.31297,8.08849-10.75177-3.15648-1.08505-4.63608-2.66329-1.38097-1.57824-1.38097-4.73472q0-3.55105,2.95921-8.97626t7.29937-10.15993t7.89121-6.11569q1.38096-.69048,2.66328-.69048q1.97281,0,1.97281,1.87416q0,1.67688-3.05785,6.80617q20.31987-3.15648,25.64644-3.15648q2.07144,0,2.86056.39456q1.67688.88776,2.76192,4.14288t1.08505,6.51025q0,2.07145-1.87417,4.53745-1.77552,2.36736-6.21433,7.00345-5.22792,5.62249-8.77897,12.23138t-3.55104,9.96265q0,4.63609,5.72113,4.63609q6.01704,0,20.9117-12.23138v6.60889q-8.18713,8.58169-13.51369,13.5137t-9.86402,7.89121q-4.53744,2.86056-8.08849,2.86056-4.14289,0-6.90481-3.74832-2.76192-3.84697-2.76192-11.0477q0-4.24152,2.17008-9.66673t6.31297-11.73818q4.24152-6.41161,9.46945-12.72458-2.76192.59184-6.21433,1.28233-3.4524.59184-7.29937,1.28232t-5.9184,1.08504q-6.11569,12.23138-17.75523,22.19403Z" fill="#ff2a2a" stroke="#000" stroke-width="1.6"/><path id="sujitsir_catering_logo_svg-u-path8041" d="M159.65808,872.14853v-2.36736q25.44915-26.83012,35.01725-37.58189q2.17008-12.13274,10.45585-12.13274q2.07144,0,4.43881,1.18368l.59184,1.87416q-.39456,1.18369-.39456,3.35377q0,1.87416,1.38096,7.00345q1.4796,5.03065,2.26872,8.48305t.78912,7.79257q0,6.51025-2.9592,12.5273-2.95921,5.91841-8.58169,11.44225-5.62249,5.42521-14.5001,11.14634q3.55104.59184,5.62248.59184q4.04425,0,8.68034-1.9728q4.73472-2.07144,9.56809-5.42521q4.93201-3.4524,11.44226-8.87761v6.60889q-12.62594,12.33001-22.5886,18.74162-9.96265,6.31297-17.16338,6.31297-9.27217,0-17.16338-7.89121-4.63609-4.73472-5.81977-9.07489-1.08504-4.34017-1.08504-11.73818Zm36.79277-15.09194l-1.77552-14.40146q-6.11569,6.90481-26.13964,26.5342q5.91841,1.28232,8.08849,3.4524t6.11569,8.38442q6.70753-2.76193,10.25857-7.49666q3.64969-4.83336,3.64969-13.11913q0-.9864-.0986-1.77553q0-.78912-.0986-1.57824Z" fill="#ff2a2a" stroke="#000" stroke-width="1.6"/></g></g></g></svg>