<svg id="e6YA1DcydsH1" xmlns="http://www.w3.org/2000/svg" xmlns:xlink="http://www.w3.org/1999/xlink" viewBox="0 0 210 297" shape-rendering="geometricPrecision" text-rendering="geometricPrecision"><defs><linearGradient id="e6YA1DcydsH4-fill" x1="3190.6211" y1="4503.7407" x2="4031.4182" y2="4316.6445" spreadMethod="pad" gradientUnits="userSpaceOnUse" gradientTransform="translate(0 0)"><stop id="e6YA1DcydsH4-fill-0" offset="0%" stop-color="#999"/><stop id="e6YA1DcydsH4-fill-1" offset="62.34749%" stop-color="#f3f3f3"/><stop id="e6YA1DcydsH4-fill-2" offset="100%" stop-color="rgba(158,148,148,0.980392)"/></linearGradient><linearGradient id="e6YA1DcydsH7-fill" x1="3813.4236" y1="3289.2134" x2="5189.7563" y2="2433.1064" spreadMethod="pad" gradientUnits="userSpaceOnUse" gradientTransform="translate(0 0)"><stop id="e6YA1DcydsH7-fill-0" offset="0%" stop-color="#6e6e6e"/><stop id="e6YA1DcydsH7-fill-1" offset="19.183503%" stop-color="rgba(0,0,0,0.486275)"/><stop id="e6YA1DcydsH7-fill-2" offset="59.482074%" stop-color="rgba(182,182,182,0.4)"/><stop id="e6YA1DcydsH7-fill-3" offset="100%" stop-color="#a6a6a6"/></linearGradient><linearGradient id="e6YA1DcydsH10-fill" x1="668.46973" y1="5827.1246" x2="3259.9983" y2="5827.1246" spreadMethod="pad" gradientUnits="userSpaceOnUse" gradientTransform="translate(0 0)"><stop id="e6YA1DcydsH10-fill-0" offset="0%" stop-color="#787878"/><stop id="e6YA1DcydsH10-fill-1" offset="71.99738%" stop-color="#fff"/><stop id="e6YA1DcydsH10-fill-2" offset="100%" stop-color="#898989"/></linearGradient><linearGradient id="e6YA1DcydsH13-fill" x1="851.36133" y1="2824.4491" x2="2620.584" y2="2824.4491" spreadMethod="pad" gradientUnits="userSpaceOnUse" gradientTransform="translate(0 0)"><stop id="e6YA1DcydsH13-fill-0" offset="0%" stop-color="#ff730f"/><stop id="e6YA1DcydsH13-fill-1" offset="100%" stop-color="#fdf000"/></linearGradient><linearGradient id="e6YA1DcydsH17-fill" x1="4314.3159" y1="4458.7861" x2="5529.1934" y2="4050.5764" spreadMethod="pad" gradientUnits="userSpaceOnUse" gradientTransform="translate(0 0)"><stop id="e6YA1DcydsH17-fill-0" offset="0%" stop-color="#fff"/><stop id="e6YA1DcydsH17-fill-1" offset="100%" stop-color="#d0f7f7"/></linearGradient></defs><g><g id="e6YA1DcydsH3" transform="matrix(-.074539 0.210374-.210374-.074539 509.237781-174.17457)"><path d="M3810.2246,3796.3457c-4.615.061-9.2928.3954-14.0254,1.0195-88.7377,9.2871-159.7934,75.0897-214.1445,141.1309-61.0797,75.1166-94.8534,175.8527-71.5215,272.1094c6.3717,47.7433,51.7487,95.2524,21.7344,143.1953-96.5219,198.7634-194.7113,396.8058-293.2969,594.5722-31.1424,38.9235-8.7923,94.308,40.6309,102.1758c55.9125,13.2197,81.8818-47.3688,100.0039-88.1953c81.0619-175.8678,170.5728-347.7637,255.1699-521.9629c16.3382-43.5167,54.2588-75.1172,99.1406-85.5c56.6525-10.2569,106.5819-42.7291,141.5176-88.3476c74.318-95.8897,108.1705-227.9239,75.498-346.1895-16.3126-64.4325-71.4822-124.9262-140.707-124.0078Z" transform="matrix(.264583 0 0 0.264583 0 0)" fill="url(#e6YA1DcydsH4-fill)" stroke-width="1.33333"/><path d="M867.72776,1336.291c-13.07655-2.0817-18.98963-16.7357-10.74986-27.0342c26.0841-52.3257,52.06316-104.7243,77.60125-157.3138c7.94129-12.6849-4.06463-25.2547-5.75047-37.8868-6.17323-25.4679,2.76275-52.1211,18.92342-71.9957c14.38039-17.4734,33.18029-34.8839,56.6588-37.3411c20.0345-2.6422,36.336,14.3564,40.9398,32.5407c8.6446,31.2911-.3121,66.2255-19.9754,91.5963-9.2434,12.0699-22.454,20.6611-37.44331,23.3749-11.87497,2.7471-21.90796,11.1082-26.23078,22.622-22.38297,46.0902-46.06635,91.571-67.51399,138.1027-4.79481,10.802-11.66594,26.8327-26.45946,23.335Zm8.22449-5.7802c12.5922-9.4832,14.89589-26.6311,22.56482-39.6641c20.67941-41.8322,41.0801-83.8166,62.12133-125.4628c6.48835-11.2872,18.66985-16.925,30.91436-19.5135c24.94824-6.5255,40.13394-31.0849,47.30444-54.3622c7.3022-24.2529,8.0034-54.9461-11.2103-74.0165-13.0656-12.7146-33.63613-7.8018-47.21412,1.4446-25.16274,16.874-46.70266,43.8777-48.30446,75.1024-1.17188,15.1563,4.99954,29.1329,9.90815,43.0575c2.60225,13.9577-7.94397,25.6779-12.70985,38.0556-22.90234,46.2647-45.5142,92.7128-68.73546,138.7893-6.6256,10.4941,5.10531,20.782,15.36109,16.5697Z" stroke-width="0.352778"/></g><g id="e6YA1DcydsH6" transform="matrix(.026068 0.221661-.221661 0.026068 456.367466-145.360438)"><path d="M4989.166,2435.707c-38.6743-.8061-68.8999,45.1199-104.1289,61.293-41.8371,38.2378-90.3206,67.2647-135.1269,101.6016-47.1251,43.3747-93.1643,89.6894-129.2969,142.7617-36.5121,48.2679-5.9657,111.6999-23.9317,162.7383-174.4206,150.7344-350.8621,299.5624-527.416,447.5976-46.1231,37.3829-18.7371,111.533,36.1348,121.1699c38.451,6.8613,63.5597-29.4168,90.1094-50.5058c127.9952-113.066,260.3567-220.8262,389.5039-332.125c48.7253-31.0274,89.2454-109.0331,156.1914-77.3399c64.0267,25.3355,131.3401-7.1703,183.9023-43.207c90.8527-68.0908,178.8825-141.8994,254.3574-227.1523c53.9271-19.647,38.4309-117.0285-22.7343-80.5235-71.3636,50.3723-134.5203,111.2279-201.8926,166.4239-17.9615,14.1381-82.2816,81.4419-67.6699,29.1171c72.2698-62.2248,146.1537-123.0308,218.6855-185.1601c54.8897-14.6181,55.6609-116.7685-11.0293-85.2871-65.8499,51.591-127.8595,108.2156-192.7324,161.1777-17.2173,13.026-98.4409,93.1823-74.3555,35.0801c69.224-58.7066,138.9872-117.1303,208.4492-175.6758c46.6572-16.8356,79.869-100.6829,5.8243-97.916-66.5809,51.5815-129.3026,108.7235-195.0996,161.582-20.7296,14.4989-87.9685,94.0321-86.9688,43.7617c54.6206-51.0973,114.9069-96.1791,170.8613-146.0156c31.3168-37.021,118.0572-63.9125,86.6524-124.4316-9.9902-6.1033-19.3642-8.7788-28.2891-8.9649Z" transform="matrix(.264583 0 0 0.264583 0 0)" fill="url(#e6YA1DcydsH7-fill)" stroke-width="1.33333"/><path d="M1086.2206,918.86311c-14.5182-2.54978-21.764-22.16856-9.5606-32.05944c46.7132-39.16764,93.3964-78.54495,139.5452-118.42676c4.7535-13.50391-3.3285-30.287,6.332-43.0579c9.5601-14.04205,21.7414-26.29613,34.2099-37.77236c11.855-9.08496,24.6831-16.765,35.7525-26.88208c11.472-5.26663,20.9381-22.45747,35.0354-13.84514c8.3092,16.01236-14.6408,23.12721-22.9267,32.92236-14.8046,13.18591-30.7555,25.11423-45.2072,38.63373-.2645,13.30071,17.5258-7.74264,23.0105-11.57879c17.4088-13.98549,34.0041-29.10426,51.6203-42.75186c19.591-.73207,10.8036,21.45231-1.5411,25.90672-18.3785,15.49015-36.8368,30.9484-55.1523,46.48119-6.3726,15.37288,15.1177-5.83514,19.6731-9.28159c17.1643-14.01288,33.571-28.99508,50.9938-42.64521c17.6451-8.32944,17.4412,18.6978,2.9183,22.56551-19.1907,16.43837-38.7393,32.52694-57.8607,48.99059-3.866,13.84426,13.152-3.96318,17.9043-7.70391c17.8256-14.60392,34.5362-30.70542,53.4178-44.03308c16.1833-9.65862,20.2832,16.10665,6.015,21.30491-19.9694,22.5565-43.2607,42.08507-67.2988,60.10075-13.9071,9.5347-31.7168,18.1354-48.6572,11.43207-17.7128-8.38551-28.434,12.25345-41.3259,20.46278-34.1702,29.44782-69.1908,57.95932-103.0562,87.87469-7.0246,5.5798-13.6679,15.1782-23.8414,13.36282Zm5.7209-5.6511c14.8336-10.60874,27.346-24.18949,41.7647-35.4063c34.281-28.65919,67.9769-58.14783,102.5231-86.51371c15.3411-5.02083,31.3945,9.11166,46.6202-.45625c24.5437-11.02091,43.2986-31.11663,63.6672-48.13429c9.4399-10.01627,21.0754-19.38213,28.0866-30.86359-7.7255-12.03438-21.7452,11.80211-30.3845,15.24428-15.7351,13.68056-31.6456,27.22634-47.7426,40.45603-20.5614-.71008-3.7319-23.21539,7.0332-27.4337c17.217-14.85958,35.03-29.11322,51.9272-44.26907c4.7528-17.59032-18.1281,3.4459-22.646,8.28486-17.4918,14.58339-34.9373,29.22731-52.307,43.95145-19.6587,1.45301-7.0153-21.20277,4.1409-24.82316c18.0166-15.37018,36.2937-30.53868,54.2833-45.80571c6.8662-13.83306-11.9097-4.6363-15.2677,1.90575-18.1337,15.0108-36.1032,30.52352-54.2671,45.61618-11.6409,12.59553-23.9326-7.78648-9.544-14.74066c20.8526-16.8626,40.9151-34.76838,61.8332-51.50828c8.2923-16.76899-14.5614-4.48872-19.7003,2.13158-12.6875,8.55158-23.9296,19.16014-37.0593,27.16336-14.0065,10.73703-25.6846,24.33155-36.6004,38.0773-10.41,12.70856-2.7306,29.25798-6.2582,43.59128-22.7129,21.61065-47.4872,41.14564-71.2282,61.68285-23.4008,19.25344-45.7696,39.82089-69.714,58.3498-12.0855,8.24017-2.1018,26.71123,10.8397,23.5Z" stroke-width="0.352778"/></g><g id="e6YA1DcydsH9" transform="matrix(.223189 0 0 0.223189 178.596834-158.290994)"><path d="M1957.6816,5129.1875c-54.1519-1.229-106.8104,24.5202-123.6992,86.9375-6.34,29.7449,3.2273,74.8935,26.1856,123.5742c8.3562,17.7173,8.3528,17.7598-1.3418,17.7598-2.9822,0-6.3941,1.0628-8.3477,2.5996-3.3714,2.6521-30.3283,8.0664-40.1582,8.0664-2.6436,0-6.7773.8871-9.1855,1.9707s-12.1796,3.8257-21.7129,6.0938c-34.3884,8.1811-57.0933,15.6195-95.3321,31.2304-45.0565,18.3942-54.7826,22.7226-88.6601,39.4629-95.0887,46.9882-194.3593,104.1225-234.6738,135.0625-241.5063,188.3845-380.71588,468.6606-453.24418,776.7363-3.35089,17.1731-6.30852,31.4425-6.57422,31.7071-.43007.4301-172.2784,7.535-211.74219,8.7539-17.22005.5321-19.22059,1.3534-20.54883,8.4336-.69721,3.7164.49408,7.4097,6.72852,20.8652c9.16199,20.7383,33.0509,106.7399,87.94336,95.6856l13.38476-.045c7.36222-.024,556.08678-11.946,1219.38668-26.4941c725.5459-15.9133,1206.3115-25.9648,1206.7832-25.2285.4314.6727,5.1831,1.0473,10.5586.8281l9.7735-.3965l3.7461-13.332c2.0602-7.3334,5.6169-20.2347,7.9043-28.668s4.9379-16.2322,5.8906-17.332c.9525-1.1002,3.9215-9.8005,6.5977-19.334c7.9525-28.3294,9.1556-31.9488,10.9921-33.0664c2.5169-1.5311,2.1059-7.73-.7597-11.457-1.3491-1.7549-5.3842-4.3047-8.9688-5.6661-6.0684-2.3058-11.6822-2.4754-81.4922-2.4765h-74.9746l-.6699-3c-.3677-1.6498-1.6153-8.4002-2.7734-15-2.1986-12.5288-7.7166-39.6823-10.1602-50-6.0651-25.6093-26.3467-94.4624-38.6875-131.334-80.538-234.291-226.7428-494.0067-467.0937-624.9375-27.2961-16.1847-80.0016-43.9392-104-54.7656-5.8667-2.6468-22.6673-10.313-37.334-17.0371-29.8583-13.6891-50.8162-22.2805-77.7461-31.8692-10.0392-3.5743-28.7178-10.5031-41.5078-15.3965-31.1567-11.9195-57.4601-19.2463-92.8457-25.8593-40.809-7.6271-130.3602-20.1291-144.2188-20.1328h-4.3164l6.5332-13c18.0428-35.9025,25.0429-62.9694,23.7949-92-1.7161-70.18-73.8097-116.3573-143.4336-117.9375Z" transform="matrix(.264583 0 0 0.264583 0 0)" fill="url(#e6YA1DcydsH10-fill)" stroke-width="1.33333"/><path d="M178.69282,1700.8585c-1.64953-3.5601-1.96468-4.5375-1.78021-5.5208.35143-1.8733.8808-2.0905,5.43694-2.2313c10.44146-.3225,55.90948-2.2022,56.02327-2.316.0703-.07.85326-3.8454,1.73985-8.3891c19.18978-81.5117,56.02216-155.6684,119.92068-205.5118c10.66656-8.1862,36.93201-23.3027,62.09088-35.735c8.96343-4.4292,11.53651-5.5746,23.45773-10.4414c10.11734-4.1304,16.12501-6.0985,25.22361-8.2631c2.52236-.6001,5.10745-1.3256,5.7446-1.6123s1.7308-.5212,2.43025-.5212c2.60082,0,9.73307-1.4328,10.6251-2.1345.51689-.4066,1.42004-.6878,2.20906-.6878c2.56505,0,2.56586-.011.35493-4.6987-6.07438-12.8801-8.60566-24.8257-6.9282-32.6957c10.21371-37.7476,69.87154-24.8086,70.67874,8.202.3302,7.681-1.52213,14.8426-6.29596,24.3418l-1.72857,3.4395l1.14254.0004c3.66674.001,27.36017,3.3091,38.15754,5.3271c9.36244,1.7497,16.322,3.6881,24.56553,6.8418c3.38403,1.2947,8.32602,3.1278,10.98222,4.0735c7.1252,2.537,12.67055,4.8101,20.57054,8.432c3.88056,1.7791,8.32556,3.8077,9.87778,4.508c6.34958,2.8645,20.2946,10.2079,27.51667,14.4901c63.59286,34.6421,102.27605,103.3584,123.58507,165.3479c3.26517,9.7556,8.63162,27.9728,10.23634,34.7486.64653,2.7299,2.10629,9.9143,2.68799,13.2292.30642,1.7462.63676,3.5322.73406,3.9687l.17692.7938l19.83704.0003c18.47056.0003,19.95579.045,21.56139.6551.94841.3602,2.01644,1.0348,2.37338,1.4991.75819.9861.86695,2.6263.20102,3.0314-.48592.2957-.8043,1.2533-2.90841,8.7488-.70806,2.5224-1.49363,4.8242-1.74565,5.1153s-.95342,2.3548-1.55864,4.5861-1.54637,5.6444-2.09148,7.5847l-.99109,3.5278-2.58594.1048c-1.42229.058-2.67931-.041-2.79343-.219-.12481-.1948-127.32762,2.4643-319.29495,6.6747-175.49812,3.8492-320.68125,7.0037-322.62917,7.01l-3.54169.012c-14.52363,2.9248-20.84417-19.8298-23.26828-25.3168Zm342.13667,12.9691c177.28063-3.8806,323.56473-7.0556,325.07582-7.0556h2.7474l1.19104-4.3215c2.5689-9.3207,3.18463-11.3281,3.54256-11.5493.34848-.2154,2.10947-6.0089,2.11903-6.9715.006-.5607-29.61435-.6108-49.73729-.084-7.47007.1954-34.29881.8316-59.61944,1.4138-25.32062.582-89.77312,2.0872-143.22777,3.3447-93.16084,2.1916-154.18455,3.6032-220.83888,5.1083-16.97743.3834-34.28118.7828-38.45277.8876s-14.72847.3455-23.45972.5349-18.89125.4228-22.57778.5187-10.35403.255-14.81667.3537c-4.46263.099-15.24436.3615-23.95939.5839s-17.86815.3144-20.34029.2045c-3.98155-.1771-54.15445,1.5876-54.46656,1.9157-.0644.068.17849.7581.5398,1.5342s1.43241,3.0823,2.38023,5.1249c3.78231,4.2305,5.39201,13.7168,11.13169,15.5126.24231,0,145.48835-3.175,322.76899-7.0555Zm-157.09197-24.6934c133.11592-3.2189,145.08564-3.5081,319.88554-7.7268c70.67698-1.7058,128.59331-3.1911,128.70296-3.3007.34399-.344-3.19652-17.9921-4.25906-21.2298-.25883-.7887-1.3693-4.6884-2.46771-8.666-1.83684-6.6516-8.26661-26.6975-10.29705-32.1027-27.79224-66.8536-55.41907-116.5168-120.59108-153.1825-1.94028-1.0761-5.51216-3.0664-7.9375-4.4228-5.03439-2.8156-13.73689-7.2082-17.63889-8.9033-1.45521-.6321-5.57086-2.4912-9.14591-4.1312-7.39267-3.3914-11.22546-4.9573-19.2527-7.8658-3.10445-1.1249-7.23195-2.6784-9.17222-3.4524-4.07085-1.6238-10.81053-3.9076-14.64028-4.961-5.88095-1.6176-19.65445-4.037-33.3375-5.856-12.42822-1.6522-16.58228-2.0442-18.87361-1.7806-1.17193.1347-3.30084,0-5.37605-.3301-3.74964-.6038-8.73506-.7397-8.73506-.2382-19.27339,1.3634-32.43978,1.9848-50.8,5.1977-4.79823.8336-14.5569,3.3472-20.10833,5.1792-4.49852,1.4846-13.402,5.0174-23.28333,9.2385-11.26336,4.8116-44.43935,22.432-56.97361,30.2599-11.08018,6.9198-15.99014,10.4114-21.87222,15.554-47.44677,45.1436-83.33353,93.8814-102.85395,159.1515-1.00182,3.3788-4.15016,15.3929-5.5006,20.9903-1.59255,6.6009-5.0635,23.5711-5.0635,24.7564c0,.5221.28302.6434,1.4993.6427.82462,0,53.96618-1.2696,118.09236-2.8203ZM506.7889,1415.7603c6.46546-.5349,22.97867-.7862,29.10417-.4429c6.45325.3616,5.67386.8193,8.60799-5.0551c3.43873-6.8847,4.89461-11.0657,5.68949-16.3389.64886-4.3046.64572-5.1162-.0328-8.4586-7.18957-28.5811-55.43895-31.3075-59.79467-2.142-.33436,2.6351-.29001,3.612.32837,7.232c1.39008,8.1379,3.66906,14.4415,8.82756,24.4164.73452,1.4203.87633,1.5193,1.91498,1.3366.61694-.1085,3.02669-.3549,5.35503-.5475Z" stroke-width="0.352778"/></g><g id="e6YA1DcydsH12" transform="matrix(0 0 0 0 99.786486 192.50017)"><path d="M2072.9043,2193.498c-53.0685,150.1966-95.2598,304.8021-144.2656,456.6485-16.257,24.4482-32.0169,166.3203-48.9473,92.666-39.729-100.114-86.0214-204.8498-169.2598-275.5625-133.8522-116.9324-346.2937-187.1-528.5546-142.0488-64.0206,25.2846-133.3072,50.0676-193.23052,87.6074-50.26839,35.7081-123.6615,70.4717-137.28515,134.2051c138.50857,251.8326,276.42997,504.1596,414.74027,756.1679c40.1299,54.7616,52.3529,154.5841,137.8554,152.1758c153.0331-2.9631,309.3607-68.9921,415.334-180.1465c177.6335,41.1935,355.2808,82.3291,532.9258,123.4727c60.4139-2.4299,157.7485,68.1037,198.1777,22.5215c22.3557-100.1613,53.9925-199.5659,70.1895-300.3379-131.3902-38.7693-267.3554-67.6421-400.4375-102.8574c59.7891-224.1532,121.6827-447.7405,182.6074-671.586c52.1141-89.2187-76.9443-76.9377-129.2637-102.039-66.6436-14.9859-134.5262-43.6066-200.5859-50.8868Zm-656.4414,415.877c33.4728.6339,66.5224,8.6958,97.1601,26.7773c98.0998,66.6668,162.0549,204.6522,105.1465,317.0274-34.976,70.3752-108.7879,101.3192-179.164,123.7265v0l-6.666,2.5469c-37.4569-68.9261-71.8863-139.4678-108.2051-209.0274-23.4936-65.1258-94.3952-147.7158-90.7852-201.4668c53.1644-34.9268,118.611-60.7922,182.5137-59.582Z" transform="matrix(.264583 0 0 0.264583-.000001 0)" fill="url(#e6YA1DcydsH13-fill)" stroke-width="1.33333"/><path d="M372.08508,916.60883c-22.62255.6372-25.85649-25.7745-36.4742-40.2635-36.59459-66.6772-73.08638-133.43883-109.73344-200.06943c3.60459-16.8628,23.02297-26.0602,36.32315-35.50797c15.8547-9.9324,34.18711-16.4898,51.12587-23.1797c48.22322-11.9198,104.43141,6.6453,139.84649,37.58367c22.02347,18.7094,34.27158,46.421,44.7832,72.9095c4.47951,19.4876,8.64942-18.0495,12.95075-24.5181c12.96612-40.176,24.12941-81.08217,38.17045-120.82167c17.4783,1.9262,35.43859,9.499,53.07139,13.464c13.84283,6.6414,47.98994,3.3922,34.20143,26.998-16.11966,59.22577-32.49587,118.38277-48.31508,177.69c35.2113,9.3174,71.18562,16.9568,105.94926,27.2145-4.28545,26.6626-12.65592,52.9636-18.57086,79.4646-10.6969,12.0603-36.45041-6.6021-52.43493-5.9592-47.00191-10.8859-94.00436-21.7695-141.00321-32.6686-28.03878,29.4096-69.40026,46.8799-109.89027,47.6639Zm11.83196-5.974c34.87203-4.7178,70.06178-19.438,93.78723-46.0283-1.79919-10.0658,7.78102-29.3587,6.76508-8.7288.23181,17.4264,32.34936,11.0883,45.83427,18.5954c46.45385,10.5982,92.77088,21.8272,139.3174,31.9987c6.69306-24.7004,12.80163-49.6602,18.33837-74.6478-35.12394-9.4503-70.85209-17.2193-105.74734-27.1441c3.7589-23.262,12.23991-46.14973,17.77416-69.27503c11.2952-41.5468,22.80092-83.0484,33.90866-124.63867-27.04614-7.4586-54.06354-15.03-81.13674-22.3847-16.95855,51.7455-32.37611,104.06987-48.78242,156.02587-.83109,9.6912,11.17509,36.82753-.8402,36.84493-1.42301-32.58593-13.30453-64.11993-29.8422-91.91693-17.25689-25.7621-40.70728-47.60277-69.98725-58.87547-26.90084-10.5247-57.24038-15.6124-85.25682-6.2795-26.84437,4.8578-51.65903,18.9575-73.13724,35.52057-25.11295,11.4665-3.01496,30.912,3.78551,46.3626c36.00173,65.1276,71.11108,130.81443,107.68191,195.58453c4.84107,10.7561,17.16139,9.9689,27.53762,8.9867Zm-7.902-90.5665c-21.14234-36.6695-38.14139-75.93513-58.95798-112.81893c14.1804-11.9707,34.06317-20.6324,53.25856-22.0289c27.15015-1.8749,50.88622,17.0649,61.95337,40.7715c13.13593,23.8563,11.31792,57.56803-10.94201,75.55433-11.47152,11.3773-28.34113,16.4541-43.4647,19.8024l-1.84735-1.2804Zm4.96824-5.5287c18.62036-5.9286,38.1495-14.1157,47.40358-32.7358c15.05701-29.73263-1.86438-66.24113-27.81994-83.88003-23.58176-13.9173-52.5626-5.4021-73.99714,8.6795-.95516,14.2216,17.80408,36.0733,24.02008,53.3045c9.60936,18.4043,18.71908,37.06863,28.62953,55.30533l1.76389-.6736Z" stroke-width="0.352778"/></g><g id="e6YA1DcydsH15" transform="matrix(-.017296-.222519 0.222519-.017296-285.69064 340.723176)"><g transform="matrix(1.05106-.036446 0.038333 0.999336-102.589 47.1514)"><path d="M5271.8164,3781.207c-15.6132-.2725-31.0408.5712-45.7539,2.2793-123.4741,8.4114-222.8785,98.4562-284.8125,199.8242-33.078-40.3328-95.9224-24.7511-132.834,1.6368-97.4252,65.1329-128.2383,188.8271-132.8281,299.3847-13.8928,34.6061-73.2863,34.3936-99.1738,63.5391-100.8715,70.2739-185.962,168.1327-230.7539,283.4453-26.3022,61.6388-19.4911,147.3188,46.3906,181.3516c67.5507,33.9696,137.7456-15.4263,195.8672-47.166c37.5352-21.7047,83.4081-45.5693,120.6191-42.1231c62.6049,71.187,122.2576,145.1496,184.0469,217.125l6.5293,3.1465l7.4199-2.0664c37.6233-37.112,63.5122-84.5833,94.2246-127.3789c56.2405-94.6092,136.4213-181.3695,243.6113-216.3672c50.2606-21.7977,116.9777-5.9087,158.5547-42.0039-24.2422-63.0017-57.8368-122.5351-86.7226-183.709-19.3985-42.3594-46.1996-85.5562-56.9766-128.5918c27.8449-56.9046,85.5474-90.7141,121.7715-141.6875c47.6028-65.4138,99.6204-152.5374,61.0703-233.9844-31.461-63.3544-102.5927-85.4735-170.25-86.6543Z" transform="matrix(.264583 0 0 0.264583 0 0)" fill="url(#e6YA1DcydsH17-fill)" stroke-width="3.68223"/><path d="M1294.4962,1307.1756c-16.3485-19.0436-32.1314-38.6134-48.6957-57.4484-9.8454-.9118-21.9829,5.4026-31.9141,11.1453-15.378,8.3978-33.95,21.4671-51.8228,12.4793-17.4312-9.0045-19.2335-31.6743-12.2744-47.9829c11.8512-30.5098,34.3649-56.4016,61.0538-74.9949c6.8494-7.7114,22.5636-7.6549,26.2394-16.8111c1.2144-29.2517,9.3672-61.9793,35.1443-79.2124c9.7662-6.9818,26.3939-11.1043,35.1458-.4329c16.3867-26.8203,42.6874-50.6449,75.3566-52.8704c20.7618-2.41036,46.9059,1.6936,57.1509,22.3244c10.1997,21.5495-3.5634,44.6011-16.1583,61.9085-9.5843,13.4867-24.8511,22.432-32.2184,37.488c2.8514,11.3865,9.9423,22.8158,15.0748,34.0234c7.6427,16.1856,16.5313,31.9373,22.9454,48.6065-11.0006,9.5502-28.6527,5.3458-41.9508,11.1131-28.3607,9.2598-49.5753,32.2154-64.4556,57.2474-8.126,11.323-14.9758,23.8831-24.9303,33.7023l-1.9633.5465-1.7273-.8321Zm4.8131-7.7354c19.7136-25.1162,33.0066-56.1515,60.4846-74.2931c17.5722-13.5205,39.7153-17.6243,61.2017-19.9595c3.7711-8.2623-10.278-23.078-13.2705-33.7332-7.0657-14.3791-14.1603-28.8221-21.1342-43.1981-21.459,6.6395-42.2207,15.3285-61.3697,27.1853-20.3884,12.3939-40.7382,26.2723-53.4681,47.0345-8.7744,12.9576-17.0825,26.3953-23.1181,40.9887c15.6863,19.9508,32.4111,39.1742,48.8639,58.5216l1.8104-2.5461Zm-117.702-29.0094c20.9426-5.7971,37.5578-21.2733,58.6156-26.9318c6.2257-6.9007,11.9786-18.5719,17.6473-29.0561-9.2241-3.4795-26.2391,5.7152-34.4142,14.3632-11.8787-1.5771,8.0499-17.6384,13.8327-20.7146c8.0859-7.1308,20.8727-5.751,28.8362-6.3987c11.2518-9.5828,12.2923-20.276,11.2849-33.9405c2.0953-13.6739,5.3744-28.8718,15.3613-38.8713c9.3787,7.9-8.6669,24.2549-5.5676,36.3286-.6552,7.9361.1237,13.9466,6.8912,5.324c11.8795-7.7247,23.6199-14.6375,22.3245-30.5651c9.6399-8.7156.2362,20.5227,12.5042,7.5816c13.7498-2.1331,10.9478-13.8077,12.7095-24.0909c3.7341-17.7845,11.645-34.7622,24.9862-47.3285c9.7223,2.5088-10.4598,15.7285-11.2675,23.3663-3.402,10.0687-10.2677,29.1924-3.0801,35.8816c10.7391-5.0119,22.1772-8.3672,33.4538-11.9738c8.8608-20.6088,30.7286-31.4398,41.0706-51.2198c9.4133-14.7943,17.719-35.7222,5.1924-51.2626-17.0092-18.5681-45.8504-17.757-68.0657-10.5322-33.7451,12.2487-55.2777,44.762-66.344,77.4952-4.7503,7.5985-9.7862,31.9853-18.5321,26.8684c10.0999-17.0022,16.0437-35.9143,24.4788-53.7074-3.8758-14.8723-25.074-7.0662-32.8361.8591-22.4763,17.8264-27.6738,48.5061-28.8917,75.538-1.0097,19.2827-4.0032,40.0176-17.3539,54.8943-6.4237-7.7237,12.9138-22.955,10.3393-35.2874c4.8776-13.8637-1.2595-16.0567-11.8838-8.2041-30.615,17.8306-55.6559,45.979-68.797,78.9504-6.473,14.5972-3.4639,34.9221,12.6886,41.6953c4.6071,2.5119,9.8818,1.792,14.8166.9388Z" stroke-width="0.974258"/></g></g><g id="e6YA1DcydsH19" transform="matrix(.222905-.011254 0.011254 0.222905 92.980493 136.393494)"><path d="M-198.68816,795.68792v5.78113q0,3.5707-1.44528,4.50588-1.36027.93518-10.28701,5.01598-8.84173,4.0808-17.00332,9.60687q3.14561-4.59089,5.69611-6.80132q2.63552-2.21043,7.05638-5.52608-3.82575-1.5303-10.62708-1.5303-10.54206,0-22.78445,4.16581-12.15737,4.16582-20.74405,9.94694-8.50166,5.78113-8.50166,9.6919q0,2.0404,2.5505,3.40066q2.63552,1.27525,8.33163,2.0404q5.78113.68013,14.3678.93518t21.16914.25505q9.18179,0,11.81731.68013t2.63551,3.14562q0,3.14561-3.14561,7.22641-3.0606,3.99578-8.1616,4.76093-7.90654,1.27525-12.58245,2.21043-4.67592.85017-11.13718,2.97558-6.37624,2.12542-14.19777,6.1212-11.64728,6.12119-18.19355,12.41242t-6.54628,11.13718q0,4.16581,4.67591,6.54627q4.67591,2.29545,13.43262,2.29545q30.1809,0,61.46701-27.12029.17003,8.33162-1.87037,14.70787-1.95538,6.29123-8.07658,12.07236-5.10099,4.84594-14.96292,9.26681-9.77691,4.42086-21.42418,7.05637-11.56226,2.63552-21.76425,2.63552-11.81731,0-19.55382-5.69611-7.73651-5.6111-7.73651-14.96293q0-6.80132,3.74073-13.51764t11.47724-12.8375q7.73651-6.20621,19.55382-11.22219q11.90232-5.01598,27.37534-7.90655q2.21044-.42508,2.21044-1.36026q0-1.0202-2.63552-1.19024-2.5505-.25505-9.52186-.34006-6.88634-.085-12.15737-.59512t-11.13718-2.21043q-6.03617-1.87036-9.35182-6.54628-3.23063-4.67591-3.23063-10.37202q0-7.31143,5.27103-14.70787t14.8779-13.34761t23.20953-9.52186q13.68768-3.65571,29.92585-3.65571q9.35182,0,13.00754,1.10521q3.74073,1.0202,4.33584,2.80555.59512,1.70033.59512,6.46126Z" fill="#ff2a2a" stroke="#000" stroke-width="1.05234"/><path d="M-146.23292,860.6406q-14.96292,16.66326-14.96292,23.20954q0,3.65571,2.97558,3.65571q2.46548,0,6.37625-2.5505q3.99578-2.63551,12.41242-9.26681v5.86615q-12.07236,11.90232-18.53362,17.17335t-10.54206,5.27103q-6.97136,0-6.97136-9.18179q0-2.72053.85017-5.35605t2.29545-5.44106q1.5303-2.89057,4.59089-8.16159q3.0606-5.35605,7.05638-12.07236-4.84594,2.46548-12.15737,9.77691-4.76093,4.59089-8.07658,8.75671-3.31565,4.08079-7.14139,9.18179-3.74073,5.01598-5.52608,6.80133-1.70034,1.70033-3.48568,1.70033-2.72053,0-5.01598-5.69611t-2.29545-13.26259q0-4.67591,1.0202-7.31143q1.10521-2.63551,4.25083-7.48146q5.86614-9.01176,10.11697-13.17757q4.25083-4.25083,8.1616-4.25083q2.72053,0,4.33584.93518q1.70034.93518,1.70034,2.89056q0,.85017-.5101,1.78535t-1.19024,1.70033q-.59511.76515-2.63551,2.97559-13.43262,14.8779-13.43262,19.29876q0,2.46548,1.61531,2.46548q1.0202,0,3.91077-3.23063q2.97558-3.31564,7.56647-8.58667q4.67592-5.35605,10.96714-11.13718q6.37625-5.78113,14.45283-11.13717q4.50588-3.14562,7.48146-3.14562q1.36026,0,2.63551,3.74073q1.36027,3.74073,1.36027,7.56648q0,1.87037-3.65572,5.69611Z" fill="#ff2a2a" stroke="#000" stroke-width="1.05234"/><path d="M-110.10086,831.90499h3.65571q4.50588-8.07657,8.161594-11.39222q3.655714-3.40067,8.331627-3.40067t4.675913,2.12542q0,1.0202-3.655714,5.52608t-5.526079,7.56648q2.890564.34006,5.100996.59511q2.295448.25505,3.570697.42509-4.845946,9.01175-12.157374,18.4486-2.38046-.17004-3.99578-.25505-1.61532-.17004-3.31565-.25505-1.61531-.17004-3.99578-.34007-4.59089,7.39645-7.73651,13.26259-3.0606,5.78113-4.76093,10.62708-1.61531,4.84594-1.61531,9.18179q0,5.86614,4.67591,5.86614q3.23063,0,8.41664-3.40066q5.27103-3.48568,14.027742-10.62707v5.69611q-22.954482,24.90986-33.921622,24.90986-3.82575,0-6.20621-2.97558-2.29545-2.97558-2.29545-7.65149q0-3.14562,1.27525-7.48146q1.36026-4.33585,4.76093-13.09256-1.19024,1.0202-2.29545,2.0404-1.0202.93518-1.95538,1.78535-.85017.76515-1.87037,1.70033-1.0202.85016-2.0404,1.78535v-5.86615q8.92675-7.48146,21.59422-26.27013-1.27525-.085-2.38046-.085-1.10522-.085-2.63552-.085-5.01598,0-7.48146.68013-1.0202.25505-1.95538.59512-.85017.25505-1.19023.25505t-.34007-.5101q0-2.80555,3.48568-8.41665q2.80555-4.76093,5.27103-7.05637q2.5505-2.29545,6.12119-3.0606q3.65572-.85017,10.202-.85017Z" fill="#ff2a2a" stroke="#000" stroke-width="1.05234"/><path d="M-82.810531,879.08921v2.12541q0,5.01598,2.465481,7.82153t6.461262,2.80555q4.165814,0,8.586677-1.95539q4.50588-1.95538,8.926743-5.18601t10.797108-8.67169v5.18601q-9.606876,11.56226-18.023519,17.76847-8.416644,6.1212-17.088337,6.1212-7.566477,0-11.987341-5.86615t-4.420863-16.06814q0-8.92674,4.165813-16.15315q4.165814-7.31143,13.602657-15.38801q6.461261-5.52607,12.837506-8.33162t11.392225-2.80555q3.99578,0,6.291228,1.87036q2.380465,1.78535,2.380465,5.44107q0,5.35604-3.99578,10.71209-3.99578,5.27103-12.242391,10.54206-8.161593,5.18601-20.148934,10.03196Zm.850166-5.52608q7.651494-2.97558,13.092557-7.39645t7.99156-8.41664q2.635515-4.0808,2.635515-5.95116q0-1.95538-1.785349-1.95538-1.530299,0-5.015979,1.95538-3.400664,1.95538-6.971362,5.10099-3.48568,3.14562-6.291228,7.39645t-3.655714,9.26681Z" fill="#ff2a2a" stroke="#000" stroke-width="1.05234"/><path d="M-46.423433,882.57489v-5.52608q4.590896-5.44106,6.971361-9.26681-2.720531-.93518-3.99578-2.29545-1.190232-1.36027-1.190232-4.0808q0-3.06059,2.550498-7.73651t6.291228-8.75671t6.801328-5.27103q1.190232-.59511,2.295448-.59511q1.700332,0,1.700332,1.61531q0,1.44528-2.635514,5.86615q17.513419-2.72053,22.104316-2.72053q1.785348,0,2.465481.34006q1.445282.76515,2.380465,3.5707t.935183,5.6111q0,1.78534-1.615316,3.91076-1.530299,2.0404-5.356046,6.03618-4.505879,4.84594-7.566477,10.54206t-3.060598,8.58667q0,3.99578,4.930963,3.99578q5.186013,0,18.02352-10.54205v5.69611q-7.056378,7.39644-11.647275,11.64727t-8.50166,6.80133q-3.910763,2.46548-6.971361,2.46548-3.570697,0-5.951162-3.23063-2.380465-3.31565-2.380465-9.52186q0-3.65571,1.870365-8.33163t5.441063-10.11697q3.655714-5.52608,8.161593-10.96714-2.380464.5101-5.356045,1.10521-2.975581.5101-6.291229,1.10522t-5.100996.93518q-5.271029,10.54206-15.302988,19.12874Z" fill="#ff2a2a" stroke="#000" stroke-width="1.05234"/><path d="M4.246469,883.17v-5.95116q11.902324-12.92252,20.489001-24.31475q8.671693-11.39222,13.687673-18.10853t8.841726-9.43685q3.825747-2.80554,9.606876-2.80554q2.890564,0,2.890564,2.21043q0,1.78535-2.380465,5.27103-2.295448,3.48568-5.951162,7.14139-4.845946,4.76093-9.521859,11.98734-4.590896,7.1414-10.457042,18.27857q4.590897-3.5707,10.542059-8.41664q6.036178-4.93096,9.776909-7.6515q3.825747-2.80554,7.481461-4.42086q3.74073-1.61531,7.481461-1.61531q2.380464,0,3.060597.85016.76515.85017.76515,3.31565q0,6.46126-3.145615,12.66747-3.145614,6.1212-9.011759,12.75249t-14.452822,14.45282q2.975581,1.10522,6.121195,1.10522q9.861926,0,26.440163-15.04794v6.1212q-6.461262,5.78113-12.667474,10.88212-6.121195,5.101-11.562258,8.1616t-10.031958,3.06059q-1.700332,0-3.655714-.42508-1.870366-.34007-3.485681-.85017-1.615315-.59511-4.165813-1.61531t-3.910764-1.44528q-2.720531.68013-3.060598.68013-2.975581,0-6.971361-2.38046-2.805548,5.44106-6.206212,14.02773-3.315647,8.6717-5.611095,13.77269t-6.121196,9.77691q-2.125415,2.12542-2.975581,2.12542-3.655714,0-3.655714-6.46126q0-5.6111,2.295449-11.73229q2.210431-6.03618,5.526079-11.47725q3.230631-5.44106,7.141394-10.96714q3.910764-5.61109,5.526079-8.33162q13.432623-23.12452,20.914084-39.36269Q14.278428,872.79798,4.246469,883.17Zm34.51674,4.16582q8.416643-8.84173,12.49744-15.04794q4.165814-6.20621,4.165814-9.52186q0-3.14562-3.145615-3.14562-4.25083,0-11.98734,7.05638-7.651494,6.97136-15.813088,18.87369q6.291228-.68013,8.416643-.42509q2.125415.17004,5.866146,2.21044Z" fill="#ff2a2a" stroke="#000" stroke-width="1.05234"/><path d="M75.065306,882.57489v-5.52608q4.590896-5.44106,6.971361-9.26681-2.720531-.93518-3.99578-2.29545-1.190232-1.36027-1.190232-4.0808q0-3.06059,2.550498-7.73651t6.291228-8.75671t6.801328-5.27103q1.190232-.59511,2.295448-.59511q1.700332,0,1.700332,1.61531q0,1.44528-2.635514,5.86615q17.513415-2.72053,22.104315-2.72053q1.78535,0,2.46548.34006q1.44528.76515,2.38047,3.5707t.93518,5.6111q0,1.78534-1.61532,3.91076-1.53029,2.0404-5.35604,6.03618-4.50588,4.84594-7.56648,10.54206t-3.0606,8.58667q0,3.99578,4.93097,3.99578q5.18601,0,18.02352-10.54205v5.69611q-7.05638,7.39644-11.64728,11.64727t-8.50166,6.80133q-3.91076,2.46548-6.97136,2.46548-3.570697,0-5.951162-3.23063-2.380465-3.31565-2.380465-9.52186q0-3.65571,1.870365-8.33163t5.441063-10.11697q3.655709-5.52608,8.161589-10.96714-2.38046.5101-5.35604,1.10521-2.975582.5101-6.29123,1.10522t-5.100996.93518q-5.271029,10.54206-15.302988,19.12874Z" fill="#ff2a2a" stroke="#000" stroke-width="1.05234"/><path d="M161.61218,838.02619q-2.12541,0-4.08079-1.61532-1.87037-1.61531-1.87037-4.08079q0-3.74073,3.5707-8.33163t7.39644-4.5909q2.5505,0,4.25083,1.61532q1.70033,1.5303,1.70033,4.50588q0,3.65571-3.48568,8.07657t-7.48146,4.42087Zm5.78113,38.00242v6.20621q-8.24661,10.62708-15.388,16.06814-7.1414,5.35604-12.15738,5.35604-6.97136,0-10.37202-7.31142t-3.40067-15.98312q0-3.31565.68014-6.29123.68013-3.0606,1.61531-5.01598t3.48568-6.1212q12.07236-18.78867,22.10432-18.78867q5.18601,0,5.18601,3.99578q0,2.72053-3.40066,8.50166-3.31565,5.78113-5.95116,8.24661-7.39645,7.1414-9.6919,9.94695-2.21043,2.80554-2.21043,6.37624q0,3.0606,2.29545,5.101t5.95116,2.0404q3.99578,0,8.75671-2.89057q4.84595-2.97558,12.49744-9.43684Z" fill="#ff2a2a" stroke="#000" stroke-width="1.05234"/><path d="M166.28811,878.40907v-2.04039q21.93429-23.12452,30.1809-32.39133q1.87036-10.45704,9.01176-10.45704q1.78534,0,3.82574,1.0202l.5101,1.61531q-.34006,1.0202-.34006,2.89057q0,1.61531,1.19023,6.03618q1.27525,4.33584,1.95538,7.31142t.68013,6.71632q0,5.61109-2.55049,10.7971-2.5505,5.101-7.39645,9.86193-4.84595,4.67591-12.49744,9.60687q3.0606.5101,4.84595.5101q3.48568,0,7.48146-1.70033q4.08079-1.78535,8.24661-4.67591q4.25083-2.97558,9.86192-7.65149v5.69611q-10.88212,10.62707-19.4688,16.15315-8.58667,5.44106-14.79289,5.44106-7.99156,0-14.79288-6.80132-3.99579-4.0808-5.01598-7.82153-.93519-3.74073-.93519-10.11698Zm31.7112-13.00754l-1.5303-12.41242q-5.27103,5.95116-22.5294,22.86947q5.10099,1.10521,6.97136,2.97558t5.27103,7.22641q5.78113-2.38047,8.84172-6.46126q3.14562-4.16582,3.14562-11.30721q0-.85017-.085-1.5303q0-.68013-.085-1.36027Z" fill="#ff2a2a" stroke="#000" stroke-width="1.05234"/><path d="M234.55646,879.08921v2.12541q0,5.01598,2.46548,7.82153t6.46126,2.80555q4.16581,0,8.58668-1.95539q4.50588-1.95538,8.92674-5.18601t10.79711-8.67169v5.18601q-9.60688,11.56226-18.02352,17.76847-8.41664,6.1212-17.08834,6.1212-7.56647,0-11.98734-5.86615t-4.42086-16.06814q0-8.92674,4.16581-16.15315q4.16582-7.31143,13.60266-15.38801q6.46126-5.52607,12.83751-8.33162t11.39222-2.80555q3.99578,0,6.29123,1.87036q2.38046,1.78535,2.38046,5.44107q0,5.35604-3.99578,10.71209-3.99578,5.27103-12.24239,10.54206-8.16159,5.18601-20.14893,10.03196Zm.85016-5.52608q7.6515-2.97558,13.09256-7.39645t7.99156-8.41664q2.63552-4.0808,2.63552-5.95116q0-1.95538-1.78535-1.95538-1.5303,0-5.01598,1.95538-3.40067,1.95538-6.97136,5.10099-3.48568,3.14562-6.29123,7.39645t-3.65572,9.26681Z" fill="#ff2a2a" stroke="#000" stroke-width="1.05234"/><path d="M271.45364,878.40907v-2.04039q21.93428-23.12452,30.18089-32.39133q1.87037-10.45704,9.01176-10.45704q1.78535,0,3.82575,1.0202l.5101,1.61531q-.34007,1.0202-.34007,2.89057q0,1.61531,1.19024,6.03618q1.27524,4.33584,1.95538,7.31142t.68013,6.71632q0,5.61109-2.5505,10.7971-2.5505,5.101-7.39644,9.86193-4.84595,4.67591-12.49744,9.60687q3.0606.5101,4.84594.5101q3.48568,0,7.48147-1.70033q4.08079-1.78535,8.24661-4.67591q4.25083-2.97558,9.86192-7.65149v5.69611q-10.88212,10.62707-19.4688,16.15315-8.58668,5.44106-14.79289,5.44106-7.99156,0-14.79289-6.80132-3.99578-4.0808-5.01598-7.82153-.93518-3.74073-.93518-10.11698Zm31.71119-13.00754l-1.5303-12.41242q-5.27103,5.95116-22.5294,22.86947q5.101,1.10521,6.97137,2.97558t5.27102,7.22641q5.78113-2.38047,8.84173-6.46126q3.14562-4.16582,3.14562-11.30721q0-.85017-.085-1.5303q0-.68013-.085-1.36027Z" fill="#ff2a2a" stroke="#000" stroke-width="1.05234"/></g></g><script><![CDATA[!function(t,n){"object"==typeof exports&&"undefined"!=typeof module?module.exports=n():"function"==typeof define&&define.amd?define(n):((t="undefined"!=typeof globalThis?globalThis:t||self).__SVGATOR_PLAYER__=t.__SVGATOR_PLAYER__||{},t.__SVGATOR_PLAYER__["5c7f360c"]=n())}(this,(function(){"use strict";function t(t,n){var e=Object.keys(t);if(Object.getOwnPropertySymbols){var r=Object.getOwnPropertySymbols(t);n&&(r=r.filter((function(n){return Object.getOwnPropertyDescriptor(t,n).enumerable}))),e.push.apply(e,r)}return e}function n(n){for(var e=1;e<arguments.length;e++){var r=null!=arguments[e]?arguments[e]:{};e%2?t(Object(r),!0).forEach((function(t){o(n,t,r[t])})):Object.getOwnPropertyDescriptors?Object.defineProperties(n,Object.getOwnPropertyDescriptors(r)):t(Object(r)).forEach((function(t){Object.defineProperty(n,t,Object.getOwnPropertyDescriptor(r,t))}))}return n}function e(t){return(e="function"==typeof Symbol&&"symbol"==typeof Symbol.iterator?function(t){return typeof t}:function(t){return t&&"function"==typeof Symbol&&t.constructor===Symbol&&t!==Symbol.prototype?"symbol":typeof t})(t)}function r(t,n){if(!(t instanceof n))throw new TypeError("Cannot call a class as a function")}function i(t,n){for(var e=0;e<n.length;e++){var r=n[e];r.enumerable=r.enumerable||!1,r.configurable=!0,"value"in r&&(r.writable=!0),Object.defineProperty(t,r.key,r)}}function u(t,n,e){return n&&i(t.prototype,n),e&&i(t,e),t}function o(t,n,e){return n in t?Object.defineProperty(t,n,{value:e,enumerable:!0,configurable:!0,writable:!0}):t[n]=e,t}function a(t){return(a=Object.setPrototypeOf?Object.getPrototypeOf:function(t){return t.__proto__||Object.getPrototypeOf(t)})(t)}function l(t,n){return(l=Object.setPrototypeOf||function(t,n){return t.__proto__=n,t})(t,n)}function s(){if("undefined"==typeof Reflect||!Reflect.construct)return!1;if(Reflect.construct.sham)return!1;if("function"==typeof Proxy)return!0;try{return Boolean.prototype.valueOf.call(Reflect.construct(Boolean,[],(function(){}))),!0}catch(t){return!1}}function f(t,n,e){return(f=s()?Reflect.construct:function(t,n,e){var r=[null];r.push.apply(r,n);var i=new(Function.bind.apply(t,r));return e&&l(i,e.prototype),i}).apply(null,arguments)}function c(t,n){if(n&&("object"==typeof n||"function"==typeof n))return n;if(void 0!==n)throw new TypeError("Derived constructors may only return object or undefined");return function(t){if(void 0===t)throw new ReferenceError("this hasn't been initialised - super() hasn't been called");return t}(t)}function h(t,n,e){return(h="undefined"!=typeof Reflect&&Reflect.get?Reflect.get:function(t,n,e){var r=function(t,n){for(;!Object.prototype.hasOwnProperty.call(t,n)&&null!==(t=a(t)););return t}(t,n);if(r){var i=Object.getOwnPropertyDescriptor(r,n);return i.get?i.get.call(e):i.value}})(t,n,e||t)}function v(t){return function(t){if(Array.isArray(t))return y(t)}(t)||function(t){if("undefined"!=typeof Symbol&&null!=t[Symbol.iterator]||null!=t["@@iterator"])return Array.from(t)}(t)||function(t,n){if(!t)return;if("string"==typeof t)return y(t,n);var e=Object.prototype.toString.call(t).slice(8,-1);"Object"===e&&t.constructor&&(e=t.constructor.name);if("Map"===e||"Set"===e)return Array.from(t);if("Arguments"===e||/^(?:Ui|I)nt(?:8|16|32)(?:Clamped)?Array$/.test(e))return y(t,n)}(t)||function(){throw new TypeError("Invalid attempt to spread non-iterable instance.\nIn order to be iterable, non-array objects must have a [Symbol.iterator]() method.")}()}function y(t,n){(null==n||n>t.length)&&(n=t.length);for(var e=0,r=new Array(n);e<n;e++)r[e]=t[e];return r}Number.isInteger||(Number.isInteger=function(t){return"number"==typeof t&&isFinite(t)&&Math.floor(t)===t}),Number.EPSILON||(Number.EPSILON=2220446049250313e-31);var g=d(Math.pow(10,-6));function d(t){var n=arguments.length>1&&void 0!==arguments[1]?arguments[1]:6;if(Number.isInteger(t))return t;var e=Math.pow(10,n);return Math.round((+t+Number.EPSILON)*e)/e}function p(t,n){var e=arguments.length>2&&void 0!==arguments[2]?arguments[2]:g;return Math.abs(t-n)<e}var m=Math.PI/180;function b(t){return t}function w(t,n,e){var r=1-e;return 3*e*r*(t*r+n*e)+e*e*e}function x(){var t=arguments.length>0&&void 0!==arguments[0]?arguments[0]:0,n=arguments.length>1&&void 0!==arguments[1]?arguments[1]:0,e=arguments.length>2&&void 0!==arguments[2]?arguments[2]:1,r=arguments.length>3&&void 0!==arguments[3]?arguments[3]:1;return t<0||t>1||e<0||e>1?null:p(t,n)&&p(e,r)?b:function(i){if(i<=0)return t>0?i*n/t:0===n&&e>0?i*r/e:0;if(i>=1)return e<1?1+(i-1)*(r-1)/(e-1):1===e&&t<1?1+(i-1)*(n-1)/(t-1):1;for(var u,o=0,a=1;o<a;){var l=w(t,e,u=(o+a)/2);if(p(i,l))break;l<i?o=u:a=u}return w(n,r,u)}}function A(){return 1}function k(t){return 1===t?1:0}function _(){var t=arguments.length>0&&void 0!==arguments[0]?arguments[0]:1,n=arguments.length>1&&void 0!==arguments[1]?arguments[1]:0;if(1===t){if(0===n)return k;if(1===n)return A}var e=1/t;return function(t){return t>=1?1:(t+=n*e)-t%e}}var S=Math.sin,O=Math.cos,j=Math.acos,M=Math.asin,P=Math.tan,E=Math.atan2,I=Math.PI/180,R=180/Math.PI,F=Math.sqrt,N=function(){function t(){var n=arguments.length>0&&void 0!==arguments[0]?arguments[0]:1,e=arguments.length>1&&void 0!==arguments[1]?arguments[1]:0,i=arguments.length>2&&void 0!==arguments[2]?arguments[2]:0,u=arguments.length>3&&void 0!==arguments[3]?arguments[3]:1,o=arguments.length>4&&void 0!==arguments[4]?arguments[4]:0,a=arguments.length>5&&void 0!==arguments[5]?arguments[5]:0;r(this,t),this.m=[n,e,i,u,o,a],this.i=null,this.w=null,this.s=null}return u(t,[{key:"determinant",get:function(){var t=this.m;return t[0]*t[3]-t[1]*t[2]}},{key:"isIdentity",get:function(){if(null===this.i){var t=this.m;this.i=1===t[0]&&0===t[1]&&0===t[2]&&1===t[3]&&0===t[4]&&0===t[5]}return this.i}},{key:"point",value:function(t,n){var e=this.m;return{x:e[0]*t+e[2]*n+e[4],y:e[1]*t+e[3]*n+e[5]}}},{key:"translateSelf",value:function(){var t=arguments.length>0&&void 0!==arguments[0]?arguments[0]:0,n=arguments.length>1&&void 0!==arguments[1]?arguments[1]:0;if(!t&&!n)return this;var e=this.m;return e[4]+=e[0]*t+e[2]*n,e[5]+=e[1]*t+e[3]*n,this.w=this.s=this.i=null,this}},{key:"rotateSelf",value:function(){var t=arguments.length>0&&void 0!==arguments[0]?arguments[0]:0;if(t%=360){var n=S(t*=I),e=O(t),r=this.m,i=r[0],u=r[1];r[0]=i*e+r[2]*n,r[1]=u*e+r[3]*n,r[2]=r[2]*e-i*n,r[3]=r[3]*e-u*n,this.w=this.s=this.i=null}return this}},{key:"scaleSelf",value:function(){var t=arguments.length>0&&void 0!==arguments[0]?arguments[0]:1,n=arguments.length>1&&void 0!==arguments[1]?arguments[1]:1;if(1!==t||1!==n){var e=this.m;e[0]*=t,e[1]*=t,e[2]*=n,e[3]*=n,this.w=this.s=this.i=null}return this}},{key:"skewSelf",value:function(t,n){if(n%=360,(t%=360)||n){var e=this.m,r=e[0],i=e[1],u=e[2],o=e[3];t&&(t=P(t*I),e[2]+=r*t,e[3]+=i*t),n&&(n=P(n*I),e[0]+=u*n,e[1]+=o*n),this.w=this.s=this.i=null}return this}},{key:"resetSelf",value:function(){var t=arguments.length>0&&void 0!==arguments[0]?arguments[0]:1,n=arguments.length>1&&void 0!==arguments[1]?arguments[1]:0,e=arguments.length>2&&void 0!==arguments[2]?arguments[2]:0,r=arguments.length>3&&void 0!==arguments[3]?arguments[3]:1,i=arguments.length>4&&void 0!==arguments[4]?arguments[4]:0,u=arguments.length>5&&void 0!==arguments[5]?arguments[5]:0,o=this.m;return o[0]=t,o[1]=n,o[2]=e,o[3]=r,o[4]=i,o[5]=u,this.w=this.s=this.i=null,this}},{key:"recomposeSelf",value:function(){var t=arguments.length>0&&void 0!==arguments[0]?arguments[0]:null,n=arguments.length>1&&void 0!==arguments[1]?arguments[1]:null,e=arguments.length>2&&void 0!==arguments[2]?arguments[2]:null,r=arguments.length>3&&void 0!==arguments[3]?arguments[3]:null,i=arguments.length>4&&void 0!==arguments[4]?arguments[4]:null;return this.isIdentity||this.resetSelf(),t&&(t.x||t.y)&&this.translateSelf(t.x,t.y),n&&this.rotateSelf(n),e&&(e.x&&this.skewSelf(e.x,0),e.y&&this.skewSelf(0,e.y)),!r||1===r.x&&1===r.y||this.scaleSelf(r.x,r.y),i&&(i.x||i.y)&&this.translateSelf(i.x,i.y),this}},{key:"decompose",value:function(){var t=arguments.length>0&&void 0!==arguments[0]?arguments[0]:0,n=arguments.length>1&&void 0!==arguments[1]?arguments[1]:0,e=this.m,r=e[0]*e[0]+e[1]*e[1],i=[[e[0],e[1]],[e[2],e[3]]],u=F(r);if(0===u)return{origin:{x:d(e[4]),y:d(e[5])},translate:{x:d(t),y:d(n)},scale:{x:0,y:0},skew:{x:0,y:0},rotate:0};i[0][0]/=u,i[0][1]/=u;var o=e[0]*e[3]-e[1]*e[2]<0;o&&(u=-u);var a=i[0][0]*i[1][0]+i[0][1]*i[1][1];i[1][0]-=i[0][0]*a,i[1][1]-=i[0][1]*a;var l=F(i[1][0]*i[1][0]+i[1][1]*i[1][1]);if(0===l)return{origin:{x:d(e[4]),y:d(e[5])},translate:{x:d(t),y:d(n)},scale:{x:d(u),y:0},skew:{x:0,y:0},rotate:0};i[1][0]/=l,i[1][1]/=l,a/=l;var s=0;return i[1][1]<0?(s=j(i[1][1])*R,i[0][1]<0&&(s=360-s)):s=M(i[0][1])*R,o&&(s=-s),a=E(a,F(i[0][0]*i[0][0]+i[0][1]*i[0][1]))*R,o&&(a=-a),{origin:{x:d(e[4]),y:d(e[5])},translate:{x:d(t),y:d(n)},scale:{x:d(u),y:d(l)},skew:{x:d(a),y:0},rotate:d(s)}}},{key:"clone",value:function(){var t=this.m;return new this.constructor(t[0],t[1],t[2],t[3],t[4],t[5])}},{key:"toString",value:function(){var t=arguments.length>0&&void 0!==arguments[0]?arguments[0]:" ";if(null===this.s){var n=this.m.map((function(t){return d(t)}));1===n[0]&&0===n[1]&&0===n[2]&&1===n[3]?this.s="translate("+n[4]+t+n[5]+")":this.s="matrix("+n.join(t)+")"}return this.s}}],[{key:"create",value:function(t){return t?Array.isArray(t)?f(this,v(t)):t instanceof this?t.clone():(new this).recomposeSelf(t.origin,t.rotate,t.skew,t.scale,t.translate):new this}}]),t}();function T(t,n,e){return t>=.5?e:n}function q(t,n,e){return 0===t||n===e?n:t*(e-n)+n}function B(t,n,e){var r=q(t,n,e);return r<=0?0:r}function L(t,n,e){var r=q(t,n,e);return r<=0?0:r>=1?1:r}function C(t,n,e){return 0===t?n:1===t?e:{x:q(t,n.x,e.x),y:q(t,n.y,e.y)}}function D(t,n,e){var r=function(t,n,e){return Math.round(q(t,n,e))}(t,n,e);return r<=0?0:r>=255?255:r}function z(t,n,e){return 0===t?n:1===t?e:{r:D(t,n.r,e.r),g:D(t,n.g,e.g),b:D(t,n.b,e.b),a:q(t,null==n.a?1:n.a,null==e.a?1:e.a)}}function V(t,n){for(var e=[],r=0;r<t;r++)e.push(n);return e}function G(t,n){if(--n<=0)return t;var e=(t=Object.assign([],t)).length;do{for(var r=0;r<e;r++)t.push(t[r])}while(--n>0);return t}var Y,$=function(){function t(n){r(this,t),this.list=n,this.length=n.length}return u(t,[{key:"setAttribute",value:function(t,n){for(var e=this.list,r=0;r<this.length;r++)e[r].setAttribute(t,n)}},{key:"removeAttribute",value:function(t){for(var n=this.list,e=0;e<this.length;e++)n[e].removeAttribute(t)}},{key:"style",value:function(t,n){for(var e=this.list,r=0;r<this.length;r++)e[r].style[t]=n}}]),t}(),U=/-./g,Q=function(t,n){return n.toUpperCase()};function H(t){return"function"==typeof t?t:T}function J(t){return t?"function"==typeof t?t:Array.isArray(t)?function(t){var n=arguments.length>1&&void 0!==arguments[1]?arguments[1]:b;if(!Array.isArray(t))return n;switch(t.length){case 1:return _(t[0])||n;case 2:return _(t[0],t[1])||n;case 4:return x(t[0],t[1],t[2],t[3])||n}return n}(t,null):function(t,n){var e=arguments.length>2&&void 0!==arguments[2]?arguments[2]:b;switch(t){case"linear":return b;case"steps":return _(n.steps||1,n.jump||0)||e;case"bezier":case"cubic-bezier":return x(n.x1||0,n.y1||0,n.x2||0,n.y2||0)||e}return e}(t.type,t.value,null):null}function Z(t,n,e){var r=arguments.length>3&&void 0!==arguments[3]&&arguments[3],i=n.length-1;if(t<=n[0].t)return r?[0,0,n[0].v]:n[0].v;if(t>=n[i].t)return r?[i,1,n[i].v]:n[i].v;var u,o=n[0],a=null;for(u=1;u<=i;u++){if(!(t>n[u].t)){a=n[u];break}o=n[u]}return null==a?r?[i,1,n[i].v]:n[i].v:o.t===a.t?r?[u,1,a.v]:a.v:(t=(t-o.t)/(a.t-o.t),o.e&&(t=o.e(t)),r?[u,t,e(t,o.v,a.v)]:e(t,o.v,a.v))}function K(t,n){var e=arguments.length>2&&void 0!==arguments[2]?arguments[2]:null;return t&&t.length?"function"!=typeof n?null:("function"!=typeof e&&(e=null),function(r){var i=Z(r,t,n);return null!=i&&e&&(i=e(i)),i}):null}function W(t,n){return t.t-n.t}function X(t,n,r,i,u){var o,a="@"===r[0],l="#"===r[0],s=Y[r],f=T;switch(a?(o=r.substr(1),r=o.replace(U,Q)):l&&(r=r.substr(1)),e(s)){case"function":if(f=s(i,u,Z,J,r,a,n,t),l)return f;break;case"string":f=K(i,H(s));break;case"object":if((f=K(i,H(s.i),s.f))&&"function"==typeof s.u)return s.u(n,f,r,a,t)}return f?function(t,n,e){if(arguments.length>3&&void 0!==arguments[3]&&arguments[3])return t instanceof $?function(r){return t.style(n,e(r))}:function(r){return t.style[n]=e(r)};if(Array.isArray(n)){var r=n.length;return function(i){var u=e(i);if(null==u)for(var o=0;o<r;o++)t[o].removeAttribute(n);else for(var a=0;a<r;a++)t[a].setAttribute(n,u)}}return function(r){var i=e(r);null==i?t.removeAttribute(n):t.setAttribute(n,i)}}(n,r,f,a):null}function tt(t,n,r,i){if(!i||"object"!==e(i))return null;var u=null,o=null;return Array.isArray(i)?o=function(t){if(!t||!t.length)return null;for(var n=0;n<t.length;n++)t[n].e&&(t[n].e=J(t[n].e));return t.sort(W)}(i):(o=i.keys,u=i.data||null),o?X(t,n,r,o,u):null}function nt(t,n,e){if(!e)return null;var r=[];for(var i in e)if(e.hasOwnProperty(i)){var u=tt(t,n,i,e[i]);u&&r.push(u)}return r.length?r:null}function et(t,n){if(!n.settings.duration||n.settings.duration<0)return null;var e,r,i,u,o,a=function(t,n){if(!n)return null;var e=[];if(Array.isArray(n))for(var r=n.length,i=0;i<r;i++){var u=n[i];if(2===u.length){var o=null;if("string"==typeof u[0])o=t.getElementById(u[0]);else if(Array.isArray(u[0])){o=[];for(var a=0;a<u[0].length;a++)if("string"==typeof u[0][a]){var l=t.getElementById(u[0][a]);l&&o.push(l)}o=o.length?1===o.length?o[0]:new $(o):null}if(o){var s=nt(t,o,u[1]);s&&(e=e.concat(s))}}}else for(var f in n)if(n.hasOwnProperty(f)){var c=t.getElementById(f);if(c){var h=nt(t,c,n[f]);h&&(e=e.concat(h))}}return e.length?e:null}(t,n.elements);return a?(e=a,r=n.settings,i=r.duration,u=e.length,o=null,function(t,n){var a=r.iterations||1/0,l=(r.alternate&&a%2==0)^r.direction>0?i:0,s=t%i,f=1+(t-s)/i;n*=r.direction,r.alternate&&f%2==0&&(n=-n);var c=!1;if(f>a)s=l,c=!0,-1===r.fill&&(s=r.direction>0?0:i);else if(n<0&&(s=i-s),s===o)return!1;o=s;for(var h=0;h<u;h++)e[h](s);return c}):null}function rt(t,n){if(Y=n,!t||!t.root||!Array.isArray(t.animations))return null;var e=function(t){for(var n=document.getElementsByTagName("svg"),e=0;e<n.length;e++)if(n[e].id===t.root&&!n[e].svgatorAnimation)return n[e].svgatorAnimation=!0,n[e];return null}(t);if(!e)return null;var r=t.animations.map((function(t){return et(e,t)})).filter((function(t){return!!t}));return r.length?{svg:e,animations:r,animationSettings:t.animationSettings,options:t.options||void 0}:null}function it(t){return+("0x"+(t.replace(/[^0-9a-fA-F]+/g,"")||27))}function ut(t,n,e){return!t||!e||n>t.length?t:t.substring(0,n)+ut(t.substring(n+1),e,e)}function ot(t){var n=arguments.length>1&&void 0!==arguments[1]?arguments[1]:27;return!t||t%n?t%n:ot(t/n,n)}function at(t,n,e){if(t&&t.length){var r=it(e),i=it(n),u=ot(r)+5,o=ut(t,ot(r,5),u);return o=o.replace(/\x7c$/g,"==").replace(/\x2f$/g,"="),o=function(t,n,e){var r=+("0x"+t.substring(0,4));t=t.substring(4);for(var i=n%r+e%27,u=[],o=0;o<t.length;o+=2)if("|"!==t[o]){var a=+("0x"+t[o]+t[o+1])-i;u.push(a)}else{var l=+("0x"+t.substring(o+1,o+1+4))-i;o+=3,u.push(l)}return String.fromCharCode.apply(String,u)}(o=(o=atob(o)).replace(/[\x41-\x5A]/g,""),i,r),o=JSON.parse(o)}}var lt=[{key:"alternate",def:!1},{key:"fill",def:1},{key:"iterations",def:0},{key:"direction",def:1},{key:"speed",def:1},{key:"fps",def:100}],st=function(){function t(n,e){var i=this,u=arguments.length>2&&void 0!==arguments[2]?arguments[2]:null;r(this,t),this._id=0,this._running=!1,this._rollingBack=!1,this._animations=n,this._settings=e,(!u||u<"2022-05-02")&&delete this._settings.speed,lt.forEach((function(t){i._settings[t.key]=i._settings[t.key]||t.def})),this.duration=e.duration,this.offset=e.offset||0,this.rollbackStartOffset=0}return u(t,[{key:"alternate",get:function(){return this._settings.alternate}},{key:"fill",get:function(){return this._settings.fill}},{key:"iterations",get:function(){return this._settings.iterations}},{key:"direction",get:function(){return this._settings.direction}},{key:"speed",get:function(){return this._settings.speed}},{key:"fps",get:function(){return this._settings.fps}},{key:"maxFiniteDuration",get:function(){return this.iterations>0?this.iterations*this.duration:this.duration}},{key:"_apply",value:function(t){for(var n=arguments.length>1&&void 0!==arguments[1]?arguments[1]:{},e=this._animations,r=e.length,i=0,u=0;u<r;u++)n[u]?i++:(n[u]=e[u](t,1),n[u]&&i++);return i}},{key:"_rollback",value:function(t){var n=this,e=1/0,r=null;this.rollbackStartOffset=t,this._rollingBack=!0,this._running=!0;this._id=window.requestAnimationFrame((function i(u){if(n._rollingBack){null==r&&(r=u);var o=Math.round(t-(u-r)*n.speed);if(o>n.duration&&e!==1/0){var a=!!n.alternate&&o/n.duration%2>1,l=o%n.duration;o=(l+=a?n.duration:0)||n.duration}var s=(n.fps?1e3/n.fps:0)*n.speed,f=Math.max(0,o);f<e-s&&(n.offset=f,e=f,n._apply(f));var c=n.iterations>0&&-1===n.fill&&o>=n.maxFiniteDuration;(o<=0||n.offset<o||c)&&n.stop(),n._id=window.requestAnimationFrame(i)}}))}},{key:"_start",value:function(){var t=this,n=arguments.length>0&&void 0!==arguments[0]?arguments[0]:0,e=-1/0,r=null,i={};this._running=!0;var u=function u(o){null==r&&(r=o);var a=Math.round((o-r)*t.speed+n),l=(t.fps?1e3/t.fps:0)*t.speed;if(a>e+l&&!t._rollingBack&&(t.offset=a,e=a,t._apply(a,i)===t._animations.length))return void t.pause(!0);t._id=window.requestAnimationFrame(u)};this._id=window.requestAnimationFrame(u)}},{key:"_pause",value:function(){this._id&&window.cancelAnimationFrame(this._id),this._running=!1}},{key:"play",value:function(){if(!this._running)return this._rollingBack?this._rollback(this.offset):this._start(this.offset)}},{key:"stop",value:function(){this._pause(),this.offset=0,this.rollbackStartOffset=0,this._rollingBack=!1,this._apply(0)}},{key:"reachedToEnd",value:function(){return this.iterations>0&&this.offset>=this.iterations*this.duration}},{key:"restart",value:function(){var t=arguments.length>0&&void 0!==arguments[0]&&arguments[0];this.stop(t),this.play(t)}},{key:"pause",value:function(){this._pause()}},{key:"reverse",value:function(){this.direction=-this.direction}}],[{key:"build",value:function(t,n){delete t.animationSettings,t.options=at(t.options,t.root,"5c7f360c"),t.animations.map((function(n){n.settings=at(n.s,t.root,"5c7f360c"),delete n.s,t.animationSettings||(t.animationSettings=n.settings)}));var e=t.version;if(!(t=rt(t,n)))return null;var r=t.options||{},i=new this(t.animations,t.animationSettings,e);return{el:t.svg,options:r,player:i}}},{key:"push",value:function(t){return this.build(t)}},{key:"init",value:function(){var t=this,n=window.__SVGATOR_PLAYER__&&window.__SVGATOR_PLAYER__["5c7f360c"];Array.isArray(n)&&n.splice(0).forEach((function(n){return t.build(n)}))}}]),t}();function ft(t){return d(t)+""}function ct(t){var n=arguments.length>1&&void 0!==arguments[1]?arguments[1]:" ";return t&&t.length?t.map(ft).join(n):""}function ht(t){if(!t)return"transparent";if(null==t.a||t.a>=1){var n=function(t){return 1===(t=parseInt(t).toString(16)).length?"0"+t:t},e=function(t){return t.charAt(0)===t.charAt(1)},r=n(t.r),i=n(t.g),u=n(t.b);return e(r)&&e(i)&&e(u)&&(r=r.charAt(0),i=i.charAt(0),u=u.charAt(0)),"#"+r+i+u}return"rgba("+t.r+","+t.g+","+t.b+","+t.a+")"}function vt(t){return t?"url(#"+t+")":"none"}!function(){for(var t=0,n=["ms","moz","webkit","o"],e=0;e<n.length&&!window.requestAnimationFrame;++e)window.requestAnimationFrame=window[n[e]+"RequestAnimationFrame"],window.cancelAnimationFrame=window[n[e]+"CancelAnimationFrame"]||window[n[e]+"CancelRequestAnimationFrame"];window.requestAnimationFrame||(window.requestAnimationFrame=function(n){var e=Date.now(),r=Math.max(0,16-(e-t)),i=window.setTimeout((function(){n(e+r)}),r);return t=e+r,i},window.cancelAnimationFrame=window.clearTimeout)}();var yt={f:null,i:function(t,n,e){return 0===t?n:1===t?e:{x:B(t,n.x,e.x),y:B(t,n.y,e.y)}},u:function(t,n){return function(e){var r=n(e);t.setAttribute("rx",ft(r.x)),t.setAttribute("ry",ft(r.y))}}},gt={f:null,i:function(t,n,e){return 0===t?n:1===t?e:{width:B(t,n.width,e.width),height:B(t,n.height,e.height)}},u:function(t,n){return function(e){var r=n(e);t.setAttribute("width",ft(r.width)),t.setAttribute("height",ft(r.height))}}};Object.freeze({M:2,L:2,Z:0,H:1,V:1,C:6,Q:4,T:2,S:4,A:7});var dt={},pt=null;function mt(t){var n=function(){if(pt)return pt;if("object"!==("undefined"==typeof document?"undefined":e(document))||!document.createElementNS)return{};var t=document.createElementNS("http://www.w3.org/2000/svg","svg");return t&&t.style?(t.style.position="absolute",t.style.opacity="0.01",t.style.zIndex="-9999",t.style.left="-9999px",t.style.width="1px",t.style.height="1px",pt={svg:t}):{}}().svg;if(!n)return function(t){return null};var r=document.createElementNS(n.namespaceURI,"path");r.setAttributeNS(null,"d",t),r.setAttributeNS(null,"fill","none"),r.setAttributeNS(null,"stroke","none"),n.appendChild(r);var i=r.getTotalLength();return function(t){var n=r.getPointAtLength(i*t);return{x:n.x,y:n.y}}}function bt(t){return dt[t]?dt[t]:dt[t]=mt(t)}function wt(t,n,e,r){if(!t||!r)return!1;var i=["M",t.x,t.y];if(n&&e&&(i.push("C"),i.push(n.x),i.push(n.y),i.push(e.x),i.push(e.y)),n?!e:e){var u=n||e;i.push("Q"),i.push(u.x),i.push(u.y)}return n||e||i.push("L"),i.push(r.x),i.push(r.y),i.join(" ")}function xt(t,n,e,r){var i=arguments.length>4&&void 0!==arguments[4]?arguments[4]:1,u=wt(t,n,e,r),o=bt(u);try{return o(i)}catch(t){return null}}function At(t,n,e){return t+(n-t)*e}function kt(t,n,e){var r=arguments.length>3&&void 0!==arguments[3]&&arguments[3],i={x:At(t.x,n.x,e),y:At(t.y,n.y,e)};return r&&(i.a=_t(t,n)),i}function _t(t,n){return Math.atan2(n.y-t.y,n.x-t.x)}function St(t,n,e,r){var i=1-r;return i*i*t+2*i*r*n+r*r*e}function Ot(t,n,e,r){return 2*(1-r)*(n-t)+2*r*(e-n)}function jt(t,n,e,r){var i=arguments.length>4&&void 0!==arguments[4]&&arguments[4],u=xt(t,n,null,e,r);return u||(u={x:St(t.x,n.x,e.x,r),y:St(t.y,n.y,e.y,r)}),i&&(u.a=Mt(t,n,e,r)),u}function Mt(t,n,e,r){return Math.atan2(Ot(t.y,n.y,e.y,r),Ot(t.x,n.x,e.x,r))}function Pt(t,n,e,r,i){var u=i*i;return i*u*(r-t+3*(n-e))+3*u*(t+e-2*n)+3*i*(n-t)+t}function Et(t,n,e,r,i){var u=1-i;return 3*(u*u*(n-t)+2*u*i*(e-n)+i*i*(r-e))}function It(t,n,e,r,i){var u=arguments.length>5&&void 0!==arguments[5]&&arguments[5],o=xt(t,n,e,r,i);return o||(o={x:Pt(t.x,n.x,e.x,r.x,i),y:Pt(t.y,n.y,e.y,r.y,i)}),u&&(o.a=Rt(t,n,e,r,i)),o}function Rt(t,n,e,r,i){return Math.atan2(Et(t.y,n.y,e.y,r.y,i),Et(t.x,n.x,e.x,r.x,i))}function Ft(t,n,e){var r=arguments.length>3&&void 0!==arguments[3]&&arguments[3];if(Tt(n)){if(qt(e))return jt(n,e.start,e,t,r)}else if(Tt(e)){if(Bt(n))return jt(n,n.end,e,t,r)}else{if(Bt(n))return qt(e)?It(n,n.end,e.start,e,t,r):jt(n,n.end,e,t,r);if(qt(e))return jt(n,e.start,e,t,r)}return kt(n,e,t,r)}function Nt(t,n,e){var r=Ft(t,n,e,!0);return r.a=function(t){return arguments.length>1&&void 0!==arguments[1]&&arguments[1]?t+Math.PI:t}(r.a)/m,r}function Tt(t){return!t.type||"corner"===t.type}function qt(t){return null!=t.start&&!Tt(t)}function Bt(t){return null!=t.end&&!Tt(t)}var Lt=new N;var Ct={f:ft,i:q},Dt={f:ft,i:L};function zt(t,n,e){return t.map((function(t){return function(t,n,e){var r=t.v;if(!r||"g"!==r.t||r.s||!r.v||!r.r)return t;var i=e.getElementById(r.r),u=i&&i.querySelectorAll("stop")||[];return r.s=r.v.map((function(t,n){var e=u[n]&&u[n].getAttribute("offset");return{c:t,o:e=d(parseInt(e)/100)}})),delete r.v,t}(t,0,e)}))}var Vt={gt:"gradientTransform",c:{x:"cx",y:"cy"},rd:"r",f:{x:"x1",y:"y1"},to:{x:"x2",y:"y2"}};function Gt(t,n,r,i,u,o,a,l){return zt(t,0,l),n=function(t,n,e){for(var r,i,u,o=t.length-1,a={},l=0;l<=o;l++)(r=t[l]).e&&(r.e=n(r.e)),r.v&&"g"===(i=r.v).t&&i.r&&(u=e.getElementById(i.r))&&(a[i.r]={e:u,s:u.querySelectorAll("stop")});return a}(t,i,l),function(i){var u=r(i,t,Yt);if(!u)return"none";if("c"===u.t)return ht(u.v);if("g"===u.t){if(!n[u.r])return vt(u.r);var o=n[u.r];return function(t,n){for(var e=t.s,r=e.length;r<n.length;r++){var i=e[e.length-1].cloneNode();i.id=Qt(i.id),t.e.appendChild(i),e=t.s=t.e.querySelectorAll("stop")}for(var u=0,o=e.length,a=n.length-1;u<o;u++)e[u].setAttribute("stop-color",ht(n[Math.min(u,a)].c)),e[u].setAttribute("offset",n[Math.min(u,a)].o)}(o,u.s),Object.keys(Vt).forEach((function(t){if(void 0!==u[t])if("object"!==e(Vt[t])){var n,r="gt"===t?(n=u[t],Array.isArray(n)?"matrix("+n.join(" ")+")":""):u[t],i=Vt[t];o.e.setAttribute(i,r)}else Object.keys(Vt[t]).forEach((function(n){if(void 0!==u[t][n]){var e=u[t][n],r=Vt[t][n];o.e.setAttribute(r,e)}}))})),vt(u.r)}return"none"}}function Yt(t,e,r){if(0===t)return e;if(1===t)return r;if(e&&r){var i=e.t;if(i===r.t)switch(e.t){case"c":return{t:i,v:z(t,e.v,r.v)};case"g":if(e.r===r.r){var u={t:i,s:$t(t,e.s,r.s),r:e.r};return e.gt&&r.gt&&(u.gt=function(t,n,e){var r=n.length;if(r!==e.length)return T(t,n,e);for(var i=new Array(r),u=0;u<r;u++)i[u]=q(t,n[u],e[u]);return i}(t,e.gt,r.gt)),e.c?(u.c=C(t,e.c,r.c),u.rd=B(t,e.rd,r.rd)):e.f&&(u.f=C(t,e.f,r.f),u.to=C(t,e.to,r.to)),u}}if("c"===e.t&&"g"===r.t||"c"===r.t&&"g"===e.t){var o="c"===e.t?e:r,a="g"===e.t?n({},e):n({},r),l=a.s.map((function(t){return{c:o.v,o:t.o}}));return a.s="c"===e.t?$t(t,l,a.s):$t(t,a.s,l),a}}return T(t,e,r)}function $t(t,n,e){if(n.length===e.length)return n.map((function(n,r){return Ut(t,n,e[r])}));for(var r=Math.max(n.length,e.length),i=[],u=0;u<r;u++){var o=Ut(t,n[Math.min(u,n.length-1)],e[Math.min(u,e.length-1)]);i.push(o)}return i}function Ut(t,n,e){return{o:L(t,n.o,e.o||0),c:z(t,n.c,e.c||{})}}function Qt(t){return t.replace(/-fill-([0-9]+)$/,(function(t,n){return"-fill-"+(+n+1)}))}var Ht={fill:Gt,"fill-opacity":Dt,stroke:Gt,"stroke-opacity":Dt,"stroke-width":Ct,"stroke-dashoffset":{f:ft,i:q},"stroke-dasharray":{f:function(t){var n=arguments.length>1&&void 0!==arguments[1]?arguments[1]:" ";return t&&t.length>0&&(t=t.map((function(t){return d(t,4)}))),ct(t,n)},i:function(t,n,e){var r,i,u,o=n.length,a=e.length;if(o!==a)if(0===o)n=V(o=a,0);else if(0===a)a=o,e=V(o,0);else{var l=(u=(r=o)*(i=a)/function(t,n){for(var e;n;)e=n,n=t%n,t=e;return t||1}(r,i))<0?-u:u;n=G(n,Math.floor(l/o)),e=G(e,Math.floor(l/a)),o=a=l}for(var s=[],f=0;f<o;f++)s.push(d(B(t,n[f],e[f])));return s}},opacity:Dt,transform:function(t,n,r,i){if(!(t=function(t,n){if(!t||"object"!==e(t))return null;var r=!1;for(var i in t)t.hasOwnProperty(i)&&(t[i]&&t[i].length?(t[i].forEach((function(t){t.e&&(t.e=n(t.e))})),r=!0):delete t[i]);return r?t:null}(t,i)))return null;var u=function(e,i,u){var o=arguments.length>3&&void 0!==arguments[3]?arguments[3]:null;return t[e]?r(i,t[e],u):n&&n[e]?n[e]:o};return n&&n.a&&t.o?function(n){var e=r(n,t.o,Nt);return Lt.recomposeSelf(e,u("r",n,q,0)+e.a,u("k",n,C),u("s",n,C),u("t",n,C)).toString()}:function(t){return Lt.recomposeSelf(u("o",t,Ft,null),u("r",t,q,0),u("k",t,C),u("s",t,C),u("t",t,C)).toString()}},r:Ct,"#size":gt,"#radius":yt,_:function(t,n){if(Array.isArray(t))for(var e=0;e<t.length;e++)this[t[e]]=n;else this[t]=n}},Jt=function(t){!function(t,n){if("function"!=typeof n&&null!==n)throw new TypeError("Super expression must either be null or a function");t.prototype=Object.create(n&&n.prototype,{constructor:{value:t,writable:!0,configurable:!0}}),n&&l(t,n)}(o,t);var n,e,i=(n=o,e=s(),function(){var t,r=a(n);if(e){var i=a(this).constructor;t=Reflect.construct(r,arguments,i)}else t=r.apply(this,arguments);return c(this,t)});function o(){return r(this,o),i.apply(this,arguments)}return u(o,null,[{key:"build",value:function(t){var n=h(a(o),"build",this).call(this,t,Ht);if(!n)return null;n.el,n.options,function(t,n,e){t.play()}(n.player)}}]),o}(st);return Jt.init(),Jt}));
(function(s,i,o,w,a,b){w[o]=w[o]||{};w[o][s]=w[o][s]||[];w[o][s].push(i);})('5c7f360c',{"root":"e6YA1DcydsH1","version":"2022-05-04","animations":[{"elements":{"e6YA1DcydsH3":{"transform":{"data":{"s":{"x":0.223189,"y":0.223189},"t":{"x":-950.915092,"y":-1170.610065}},"keys":{"o":[{"t":2000,"v":{"x":192.091484,"y":-61.382708,"type":"corner"}},{"t":2700,"v":{"x":148.160393,"y":163.183801,"type":"corner"}}],"r":[{"t":2000,"v":109.510063},{"t":2700,"v":0}]}}},"e6YA1DcydsH6":{"transform":{"data":{"s":{"x":0.223189,"y":0.223189},"t":{"x":-1224.788155,"y":-781.765213}},"keys":{"o":[{"t":1700,"v":{"x":315.007976,"y":146.506875,"type":"corner"},"e":[0.42,0,1,1]},{"t":2500,"v":{"x":167.601256,"y":177.670292,"type":"corner"}}],"r":[{"t":1700,"v":83.29268,"e":[0.42,0,1,1]},{"t":2500,"v":0}]}}},"e6YA1DcydsH9":{"transform":{"data":{"s":{"x":0.223189,"y":0.223189},"t":{"x":-519.717653,"y":-1541.756314}},"keys":{"o":[{"t":0,"v":{"x":294.592097,"y":185.812056,"type":"corner"},"e":[0.42,0,1,1]},{"t":900,"v":{"x":99.786486,"y":185.812056,"type":"corner"}}]}}},"e6YA1DcydsH12":{"transform":{"data":{"o":{"x":99.786486,"y":192.50017,"type":"corner"},"t":{"x":-470.87112,"y":-749.680617}},"keys":{"s":[{"t":700,"v":{"x":0,"y":0},"e":[0.47,0,0.745,0.715]},{"t":1500,"v":{"x":0.223189,"y":0.223189}}]}}},"e6YA1DcydsH15":{"transform":{"data":{"s":{"x":0.22319,"y":0.22319},"t":{"x":-1300.08201,"y":-1156.748685}},"keys":{"o":[{"t":1400,"v":{"x":-50.778505,"y":31.423341,"type":"corner"},"e":[0.42,0,1,1]},{"t":2000,"v":{"x":48.980815,"y":151.605831,"type":"corner"}}],"r":[{"t":1400,"v":-94.444564,"e":[0.42,0,1,1]},{"t":2000,"v":3.156349}]}}},"e6YA1DcydsH19":{"transform":{"data":{"r":-2.890288,"s":{"x":0.223189,"y":0.223189},"t":{"x":-8.70093,"y":-863.496594}},"keys":{"o":[{"t":2500,"v":{"x":104.637769,"y":328.773356,"type":"corner"},"e":[0.42,0,1,1]},{"t":2900,"v":{"x":99.786486,"y":239.616065,"type":"corner"}}]}}}},"s":"MXDA1M2I5NjBhMmIzRWDIwOWZiMk9hN2FkYWMI2MDc4NzE3NTZlNmU2BYTYwYTJhN2IwVmEzYSTFiMmE3YWRhYzYwNzOg2ZjZhNjBhN2IyYTNSWYjA5ZmIyYTdPYWRhXY0FiMTYwNzg2ZjZhNUjBhNGE3YWFhYTYwRjLc4NmY2YTYwOWZhYVJXiMmEzYjBQYWM5ZmIyLR2EzNjA3OGE0OWZRYDWFiMWEzNmE2MGIxYWJVhM2EzYTI2MDc4NmZLiYg|"}],"options":"MFDAxMDg4MmY4MDgxNmXU3ZjgxMmY0NzJmNzkO3YzZlUzcxMmZVOGE/E"},'__SVGATOR_PLAYER__',window)]]></script></svg>